<svg width="34" height="34" viewBox="0 0 34 34" fill="none" xmlns="http://www.w3.org/2000/svg">
<path d="M7.08333 13.8841C7.08333 12.6701 7.08333 11.8456 7.13717 11.2081C7.18675 10.5876 7.27883 10.2688 7.39217 10.0478L4.86767 8.76148C4.51775 9.44856 4.3775 10.181 4.31233 10.9771C4.25 11.7563 4.25 12.7168 4.25 13.8841H7.08333ZM7.08333 17.0008V13.8841H4.25V17.0008H7.08333ZM4.25 17.0008V24.0841H7.08333V17.0008H4.25ZM4.25 24.0841V28.2123H7.08333V24.0841H4.25ZM4.25 28.2123C4.25 30.0412 6.46283 30.9578 7.75625 29.6644L5.75308 27.6612C5.86205 27.5522 6.00091 27.478 6.15209 27.4479C6.30326 27.4178 6.45997 27.4332 6.60238 27.4922C6.74478 27.5512 6.86649 27.6511 6.9521 27.7793C7.03771 27.9075 7.08338 28.0582 7.08333 28.2123H4.25ZM7.75625 29.6644L11.9212 25.5008L9.91667 23.4976L5.75308 27.6612L7.75625 29.6644ZM21.5333 22.6675H11.9198V25.5008H21.5333V22.6675ZM25.3697 22.3586C25.1487 22.472 24.8313 22.5641 24.2094 22.6136C23.5719 22.6661 22.7474 22.6675 21.5333 22.6675V25.5008C22.7007 25.5008 23.6597 25.5008 24.4403 25.4385C25.2365 25.3733 25.9689 25.2331 26.656 24.8831L25.3697 22.3586ZM26.6078 21.1205C26.3362 21.6536 25.9028 22.087 25.3697 22.3586L26.656 24.8831C27.7222 24.3399 28.5891 23.473 29.1323 22.4068L26.6078 21.1205ZM26.9167 17.2841C26.9167 18.4982 26.9167 19.3227 26.8628 19.9602C26.8132 20.5807 26.7212 20.8995 26.6078 21.1205L29.1323 22.4068C29.4822 21.7197 29.6225 20.9873 29.6877 20.1911C29.7514 19.412 29.75 18.4515 29.75 17.2841H26.9167ZM26.9167 13.8841V17.2841H29.75V13.8841H26.9167ZM26.6078 10.0478C26.7212 10.2688 26.8132 10.5861 26.8628 11.2081C26.9167 11.8456 26.9167 12.6701 26.9167 13.8841H29.75C29.75 12.7168 29.75 11.7577 29.6877 10.9771C29.6225 10.181 29.4822 9.44856 29.1323 8.76148L26.6078 10.0478ZM25.3697 8.80965C25.9028 9.08128 26.3362 9.51471 26.6078 10.0478L29.1323 8.76148C28.5891 7.69528 27.7222 6.82842 26.656 6.28515L25.3697 8.80965ZM21.5333 8.50081C22.7474 8.50081 23.5719 8.50081 24.2094 8.55465C24.8299 8.60423 25.1487 8.69631 25.3697 8.80965L26.656 6.28515C25.9689 5.93523 25.2365 5.79498 24.4403 5.72981C23.6612 5.66748 22.7007 5.66748 21.5333 5.66748V8.50081ZM12.4667 8.50081H21.5333V5.66748H12.4667V8.50081ZM8.63033 8.80965C8.85133 8.69631 9.16867 8.60423 9.79058 8.55465C10.4281 8.50081 11.2526 8.50081 12.4667 8.50081V5.66748C11.2993 5.66748 10.3403 5.66748 9.55967 5.72981C8.7635 5.79498 8.03108 5.93523 7.344 6.28515L8.63033 8.80965ZM7.39217 10.0478C7.6638 9.51471 8.09723 9.08128 8.63033 8.80965L7.344 6.28515C6.2778 6.82842 5.41094 7.69528 4.86767 8.76148L7.39217 10.0478ZM11.9198 25.5008V22.6675C11.1684 22.6676 10.4479 22.9663 9.91667 23.4976L11.9198 25.5008Z" fill="black"/>
<path d="M11.3333 12.751H22.6666M11.3333 18.4176H18.4166" stroke="black" stroke-width="2.83333" stroke-linecap="round" stroke-linejoin="round"/>
</svg>
