<svg width="38" height="38" viewBox="0 0 38 38" fill="none" xmlns="http://www.w3.org/2000/svg">
<path fill-rule="evenodd" clip-rule="evenodd" d="M12.75 12.8542C12.2383 12.8542 11.7317 12.955 11.2591 13.1508C10.7864 13.3466 10.3569 13.6335 9.99518 13.9953C9.63342 14.3571 9.34646 14.7865 9.15067 15.2592C8.95489 15.7319 8.85412 16.2385 8.85412 16.7501C8.85412 17.2617 8.95489 17.7683 9.15067 18.241C9.34646 18.7136 9.63342 19.1431 9.99518 19.5049C10.3569 19.8666 10.7864 20.1536 11.2591 20.3494C11.7317 20.5451 12.2383 20.6459 12.75 20.6459C13.7832 20.6459 14.7741 20.2355 15.5047 19.5049C16.2353 18.7742 16.6458 17.7833 16.6458 16.7501C16.6458 15.7168 16.2353 14.7259 15.5047 13.9953C14.7741 13.2647 13.7832 12.8542 12.75 12.8542ZM10.9791 16.7501C10.9791 16.2804 11.1657 15.83 11.4978 15.4979C11.8299 15.1658 12.2803 14.9792 12.75 14.9792C13.2196 14.9792 13.67 15.1658 14.0021 15.4979C14.3342 15.83 14.5208 16.2804 14.5208 16.7501C14.5208 17.2197 14.3342 17.6702 14.0021 18.0022C13.67 18.3343 13.2196 18.5209 12.75 18.5209C12.2803 18.5209 11.8299 18.3343 11.4978 18.0022C11.1657 17.6702 10.9791 17.2197 10.9791 16.7501ZM12.75 21.3542C11.0556 21.3542 9.47037 21.6942 8.26762 22.2963C7.13004 22.8658 6.02079 23.849 6.02079 25.2501V25.3393C6.01796 26.0618 6.01512 27.2802 7.16829 28.1146C7.70379 28.5013 8.4107 28.7492 9.2862 28.9065C10.1688 29.0652 11.3007 29.1459 12.75 29.1459C14.1992 29.1459 15.3311 29.0652 16.2137 28.9065C17.0892 28.7492 17.7961 28.5013 18.3316 28.1132C19.4848 27.2787 19.482 26.0618 19.4791 25.3379V25.2501C19.4791 23.8476 18.3699 22.8658 17.2323 22.2963C16.0295 21.6957 14.4443 21.3542 12.75 21.3542ZM8.14579 25.2501C8.14579 25.0872 8.30587 24.6537 9.2182 24.1975C10.0682 23.7725 11.3149 23.4792 12.75 23.4792C14.185 23.4792 15.4331 23.7725 16.2817 24.1975C17.194 24.6537 17.3541 25.0872 17.3541 25.2501C17.3541 26.1057 17.2989 26.2375 17.085 26.3933C16.9121 26.518 16.5565 26.6852 15.8383 26.8155C15.1271 26.943 14.134 27.0209 12.75 27.0209C11.3659 27.0209 10.3728 26.943 9.66162 26.8155C8.94337 26.6852 8.58779 26.518 8.41495 26.3933C8.19962 26.2375 8.14579 26.1057 8.14579 25.2501Z" fill="black"/>
<path d="M26.9167 22.0625C27.1985 22.0625 27.4687 21.9506 27.668 21.7513C27.8672 21.552 27.9792 21.2818 27.9792 21C27.9792 20.7182 27.8672 20.448 27.668 20.2487C27.4687 20.0494 27.1985 19.9375 26.9167 19.9375H21.25C20.9682 19.9375 20.698 20.0494 20.4987 20.2487C20.2994 20.448 20.1875 20.7182 20.1875 21C20.1875 21.2818 20.2994 21.552 20.4987 21.7513C20.698 21.9506 20.9682 22.0625 21.25 22.0625H26.9167ZM26.9167 26.3125C27.1985 26.3125 27.4687 26.2006 27.668 26.0013C27.8672 25.802 27.9792 25.5318 27.9792 25.25C27.9792 24.9682 27.8672 24.698 27.668 24.4987C27.4687 24.2994 27.1985 24.1875 26.9167 24.1875H22.6667C22.3849 24.1875 22.1146 24.2994 21.9154 24.4987C21.7161 24.698 21.6042 24.9682 21.6042 25.25C21.6042 25.5318 21.7161 25.802 21.9154 26.0013C22.1146 26.2006 22.3849 26.3125 22.6667 26.3125H26.9167Z" fill="black"/>
<path fill-rule="evenodd" clip-rule="evenodd" d="M14.0875 8.60425H19.9129C22.5167 8.60425 24.5794 8.60425 26.193 8.821C27.8533 9.04483 29.1977 9.51516 30.2588 10.5748C31.3185 11.6359 31.7888 12.9803 32.0126 14.6407C32.2294 16.2557 32.2294 18.3169 32.2294 20.9207V21.0794C32.2294 23.6832 32.2294 25.7459 32.0126 27.3595C31.7888 29.0198 31.3185 30.3642 30.2588 31.4253C29.1977 32.485 27.8533 32.9553 26.193 33.1792C24.578 33.3959 22.5167 33.3959 19.9129 33.3959H14.089C11.4851 33.3959 9.42246 33.3959 7.80888 33.1792C6.14854 32.9553 4.80413 32.485 3.74304 31.4253C2.68338 30.3642 2.21304 29.0198 1.98921 27.3595C1.77246 25.7445 1.77246 23.6832 1.77246 21.0794V20.9207C1.77246 18.3169 1.77246 16.2542 1.98921 14.6407C2.21304 12.9803 2.68338 11.6359 3.74304 10.5748C4.80413 9.51516 6.14854 9.04483 7.80888 8.821C9.42388 8.60425 11.4837 8.60425 14.0875 8.60425ZM8.08938 10.9276C6.66421 11.1188 5.84254 11.4787 5.24188 12.0779C4.64404 12.6772 4.28421 13.4988 4.09296 14.924C3.89746 16.3803 3.89463 18.2985 3.89463 21.0001C3.89463 23.7017 3.89746 25.6212 4.09296 27.0776C4.28421 28.5013 4.64404 29.323 5.24329 29.9222C5.84254 30.5215 6.66421 30.8813 8.08938 31.0726C9.54571 31.2681 11.4639 31.2709 14.1655 31.2709H19.8321C22.5337 31.2709 24.4533 31.2681 25.9096 31.0726C27.3334 30.8813 28.155 30.5215 28.7543 29.9222C29.3535 29.323 29.7134 28.5013 29.9046 27.0762C30.1001 25.6198 30.103 23.7017 30.103 21.0001C30.103 18.2985 30.1001 16.3803 29.9046 14.9226C29.7134 13.4988 29.3535 12.6772 28.7543 12.0779C28.155 11.4787 27.3334 11.1188 25.9082 10.9276C24.4533 10.7321 22.5337 10.7292 19.8321 10.7292H14.1655C11.4639 10.7292 9.54713 10.7321 8.08938 10.9276Z" fill="black"/>
<circle cx="27.5" cy="10.5" r="8.5" fill="white"/>
<g clip-path="url(#clip0_831_901)">
<path d="M26.5358 13.5937L23 10.0571L24.1783 8.87874L26.5358 11.2354L31.2492 6.52124L32.4283 7.70041L26.5358 13.5937Z" fill="black"/>
<path fill-rule="evenodd" clip-rule="evenodd" d="M18.8335 9.99943C18.8335 4.93693 22.9377 0.832764 28.0002 0.832764C33.0627 0.832764 37.1668 4.93693 37.1668 9.99943C37.1668 15.0619 33.0627 19.1661 28.0002 19.1661C22.9377 19.1661 18.8335 15.0619 18.8335 9.99943ZM28.0002 17.4994C27.0152 17.4994 26.04 17.3054 25.13 16.9285C24.2201 16.5516 23.3933 15.9992 22.6969 15.3027C22.0004 14.6063 21.448 13.7795 21.0711 12.8696C20.6942 11.9596 20.5002 10.9843 20.5002 9.99943C20.5002 9.01452 20.6942 8.03925 21.0711 7.1293C21.448 6.21936 22.0004 5.39257 22.6969 4.69613C23.3933 3.99969 24.2201 3.44724 25.13 3.07033C26.04 2.69342 27.0152 2.49943 28.0002 2.49943C29.9893 2.49943 31.8969 3.28961 33.3035 4.69613C34.71 6.10265 35.5002 8.01031 35.5002 9.99943C35.5002 11.9886 34.71 13.8962 33.3035 15.3027C31.8969 16.7093 29.9893 17.4994 28.0002 17.4994Z" fill="black"/>
</g>
<defs>
<clipPath id="clip0_831_901">
<rect width="20" height="20" fill="white" transform="translate(18)"/>
</clipPath>
</defs>
</svg>
