<svg width="34" height="34" viewBox="0 0 34 34" fill="none" xmlns="http://www.w3.org/2000/svg">
<path fill-rule="evenodd" clip-rule="evenodd" d="M17.8048 7.2365C17.7215 7.09874 17.6036 6.98471 17.4626 6.90553C17.3215 6.82635 17.1621 6.78473 17 6.78473C16.8379 6.78473 16.6785 6.82635 16.5374 6.90553C16.3964 6.98471 16.2785 7.09874 16.1952 7.2365L4.95596 25.8088C4.87065 25.9498 4.82465 26.1107 4.82263 26.275C4.82062 26.4394 4.86267 26.6013 4.9445 26.7443C5.02633 26.8872 5.145 27.0062 5.2884 27.0889C5.43181 27.1716 5.59481 27.2152 5.76077 27.2152H28.243C28.4091 27.2155 28.5723 27.1722 28.716 27.0896C28.8597 27.007 28.9786 26.8881 29.0607 26.7451C29.1427 26.602 29.1849 26.44 29.183 26.2755C29.1811 26.111 29.1351 25.9499 29.0497 25.8088L17.8048 7.2365ZM13.7826 5.806C15.2365 3.39831 18.7616 3.39831 20.2174 5.80415L31.4604 24.3746C32.9593 26.851 31.1583 30 28.2411 30H5.7589C2.84169 30.0019 1.04071 26.8529 2.53965 24.3765L13.7826 5.806ZM18.876 23.4996C18.876 23.9923 18.6784 24.4648 18.3265 24.8132C17.9747 25.1617 17.4976 25.3574 17 25.3574C16.5024 25.3574 16.0253 25.1617 15.6735 24.8132C15.3216 24.4648 15.124 23.9923 15.124 23.4996C15.124 23.0069 15.3216 22.5343 15.6735 22.1859C16.0253 21.8375 16.5024 21.6418 17 21.6418C17.4976 21.6418 17.9747 21.8375 18.3265 22.1859C18.6784 22.5343 18.876 23.0069 18.876 23.4996ZM18.407 12.8173C18.407 12.4478 18.2588 12.0934 17.9949 11.8321C17.731 11.5708 17.3732 11.424 17 11.424C16.6268 11.424 16.269 11.5708 16.0051 11.8321C15.7412 12.0934 15.593 12.4478 15.593 12.8173V18.3907C15.593 18.7602 15.7412 19.1146 16.0051 19.3759C16.269 19.6372 16.6268 19.784 17 19.784C17.3732 19.784 17.731 19.6372 17.9949 19.3759C18.2588 19.1146 18.407 18.7602 18.407 18.3907V12.8173Z" fill="black"/>
</svg>
