<svg width="34" height="34" viewBox="0 0 34 34" fill="none" xmlns="http://www.w3.org/2000/svg">
<path d="M29.5335 21.0454L23.2767 18.2418L23.2595 18.2338C22.9346 18.0949 22.5803 18.0391 22.2285 18.0716C21.8767 18.1041 21.5386 18.2237 21.2447 18.4197C21.2101 18.4426 21.1768 18.4674 21.1451 18.4941L17.9124 21.25C15.8645 20.2552 13.7501 18.1568 12.7553 16.1354L15.5152 12.8536C15.5417 12.8204 15.567 12.7872 15.5909 12.7513C15.7827 12.4582 15.8991 12.1222 15.9297 11.7732C15.9602 11.4243 15.9041 11.0732 15.7662 10.7511V10.7352L12.9545 4.46779C12.7722 4.04712 12.4588 3.6967 12.061 3.46882C11.6631 3.24095 11.2023 3.14785 10.7472 3.20341C8.94755 3.44023 7.29564 4.32404 6.1 5.68979C4.90436 7.05554 4.24676 8.80981 4.25001 10.625C4.25001 21.1703 12.8297 29.75 23.375 29.75C25.1902 29.7532 26.9445 29.0956 28.3102 27.9C29.6759 26.7043 30.5598 25.0524 30.7966 23.2528C30.8522 22.7979 30.7593 22.3371 30.5317 21.9393C30.3041 21.5415 29.9539 21.228 29.5335 21.0454ZM23.375 27.625C18.8678 27.6201 14.5467 25.8274 11.3596 22.6404C8.17258 19.4533 6.37993 15.1321 6.37501 10.625C6.37002 9.32805 6.83727 8.07364 7.68951 7.09602C8.54174 6.1184 9.7207 5.48442 11.0062 5.31248C11.0057 5.31777 11.0057 5.32311 11.0062 5.32841L13.7952 11.5706L11.05 14.8564C11.0221 14.8884 10.9968 14.9226 10.9743 14.9586C10.7744 15.2653 10.6572 15.6185 10.6339 15.9838C10.6107 16.3491 10.6822 16.7142 10.8415 17.0438C12.0448 19.5048 14.5244 21.9658 17.012 23.1678C17.3439 23.3256 17.7112 23.3947 18.0778 23.3681C18.4445 23.3416 18.798 23.2204 19.1038 23.0164C19.1379 22.9934 19.1707 22.9686 19.202 22.942L22.4307 20.1875L28.6729 22.9832H28.6875C28.5177 24.2705 27.8846 25.4518 26.9068 26.3062C25.929 27.1605 24.6735 27.6294 23.375 27.625Z" fill="black"/>
</svg>
