<svg width="34" height="34" viewBox="0 0 34 34" fill="none" xmlns="http://www.w3.org/2000/svg">
<path d="M4.25 9.91585C4.25 9.16441 4.54851 8.44374 5.07986 7.91238C5.61122 7.38103 6.33189 7.08252 7.08333 7.08252H26.9167C27.6681 7.08252 28.3888 7.38103 28.9201 7.91238C29.4515 8.44374 29.75 9.16441 29.75 9.91585V24.0825C29.75 24.834 29.4515 25.5546 28.9201 26.086C28.3888 26.6173 27.6681 26.9159 26.9167 26.9159H7.08333C6.33189 26.9159 5.61122 26.6173 5.07986 26.086C4.54851 25.5546 4.25 24.834 4.25 24.0825V9.91585Z" stroke="black" stroke-width="2.5" stroke-linecap="round" stroke-linejoin="round"/>
<path d="M4.25 9.91602L17 18.416L29.75 9.91602" stroke="black" stroke-width="2.5" stroke-linecap="round" stroke-linejoin="round"/>
</svg>
