<svg width="34" height="34" viewBox="0 0 34 34" fill="none" xmlns="http://www.w3.org/2000/svg">
<path d="M23.2223 3V9.22222M10.7779 3V9.22222M4.55566 15.4444H29.4446M4.55566 9.22222C4.55566 8.3971 4.88344 7.60578 5.46689 7.02233C6.05033 6.43889 6.84166 6.11111 7.66677 6.11111H26.3334C27.1586 6.11111 27.9499 6.43889 28.5333 7.02233C29.1168 7.60578 29.4446 8.3971 29.4446 9.22222V27.8889C29.4446 28.714 29.1168 29.5053 28.5333 30.0888C27.9499 30.6722 27.1586 31 26.3334 31H7.66677C6.84166 31 6.05033 30.6722 5.46689 30.0888C4.88344 29.5053 4.55566 28.714 4.55566 27.8889V9.22222Z" stroke="black" stroke-width="2.5" stroke-linecap="round" stroke-linejoin="round"/>
<path d="M10.7778 21.6667H13.8889V24.7779H10.7778V21.6667Z" stroke="black" stroke-width="3" stroke-linecap="round" stroke-linejoin="round"/>
</svg>
