<svg width="520" height="558" viewBox="0 0 520 558" fill="none" xmlns="http://www.w3.org/2000/svg">
<path d="M261.557 247.553H151.557V370.553H261.557V247.553Z" fill="#CCCCCC"/>
<path d="M95.5566 555.553H39.5566L33.5566 507.553H101.557L95.5566 555.553Z" fill="#E6E6E6"/>
<path d="M208.007 520.785L206.118 546.62C206.032 547.789 206.198 548.964 206.603 550.064C207.008 551.164 207.644 552.165 208.468 552.999C209.292 553.833 210.285 554.482 211.38 554.901C212.475 555.32 213.647 555.5 214.818 555.429L228.087 554.625C228.702 554.588 229.301 554.416 229.842 554.121C230.383 553.826 230.852 553.415 231.216 552.919C231.58 552.422 231.831 551.851 231.949 551.246C232.068 550.642 232.052 550.019 231.903 549.421L224.537 519.958L208.007 520.785Z" fill="#E6E6E6"/>
<path d="M319.003 536.062C334.621 539.716 345.777 544.908 353.106 551.936C355.716 554.42 359.131 555.884 362.73 556.062C367.326 556.304 371.084 555.788 373.909 554.527C374.632 554.208 375.258 553.701 375.719 553.059C376.181 552.417 376.462 551.663 376.534 550.876C376.62 550.076 376.49 549.268 376.158 548.535C375.826 547.803 375.304 547.172 374.646 546.709L337.606 520.354L321.873 526.648L318.203 530.319C317.805 530.716 317.506 531.2 317.327 531.733C317.148 532.266 317.096 532.833 317.173 533.39C317.251 533.946 317.457 534.477 317.774 534.941C318.091 535.405 318.512 535.788 319.003 536.062Z" fill="#E6E6E6"/>
<path d="M270.941 114.247L165.067 113.267C165.334 97.8461 168.921 82.7035 176.764 69.153C181.915 60.2535 181.804 50.5682 180.562 42.4086C178.647 29.8166 183.101 16.9331 192.999 8.91739C200.564 2.78104 210.111 -0.377712 219.842 0.0360586L221.898 0.121706C228.594 0.399998 235.113 2.35612 240.857 5.81047C246.6 9.26482 251.384 14.1067 254.768 19.8915C258.208 26.0671 259.596 33.1765 258.73 40.1923C258.059 46.7936 259.664 53.4621 263.42 60.1941C269.9 74.9767 271.303 93.8929 270.941 114.247Z" fill="#2F2E41"/>
<path d="M341.775 521.729L320.996 527.15L219.813 306.714L226.137 521.729H205.358C183.154 420.57 143.067 303.822 161.09 266.963L268.598 260.639L341.775 521.729Z" fill="#D50000"/>
<path d="M218.91 77.2438C234.377 77.2438 246.916 64.705 246.916 49.2376C246.916 33.7702 234.377 21.2314 218.91 21.2314C203.442 21.2314 190.903 33.7702 190.903 49.2376C190.903 64.705 203.442 77.2438 218.91 77.2438Z" fill="#FFB9B9"/>
<path d="M243.301 100.733L197.227 98.023C201.742 87.6592 203.546 77.6793 201.744 68.21H236.074C235.996 75.4806 239.614 88.0574 243.301 100.733Z" fill="#FFB9B9"/>
<path d="M272.211 268.77L171.028 275.998L181.417 96.6678L199.034 91.6988L218.909 96.2158L238.784 86.2778L251.432 90.7958L272.211 268.77Z" fill="#D50000"/>
<path d="M188.193 397.96L119.081 382.15C139.632 314.002 176.655 158.099 164.704 102.54L200.841 86.2783L188.193 397.96Z" fill="#E6E6E6"/>
<path d="M154.766 201.013L128.566 184.752L150.91 119.312C153.402 112.56 158.175 106.89 164.404 103.284L171.931 98.9263L167.414 164.876L154.766 201.013Z" fill="#E6E6E6"/>
<path d="M332.289 383.053C310.475 395.673 255.949 402.708 232.008 393.894C230.247 332.322 226.792 158.155 237.881 84.4712L277.631 100.733L274.018 149.518C255.014 191.251 310.197 336.607 332.289 383.053Z" fill="#E6E6E6"/>
<path d="M329.127 192.883L304.734 184.752L272.211 147.711L277.632 100.733L331.837 176.621L329.127 192.883Z" fill="#E6E6E6"/>
<path d="M252.681 228.046C253.08 229.798 254.157 231.32 255.677 232.278C257.196 233.236 259.034 233.553 260.786 233.159L281.492 228.47L278.499 215.253L257.793 219.941C256.04 220.338 254.517 221.415 253.559 222.935C252.6 224.455 252.284 226.294 252.681 228.046Z" fill="#FFB9B9"/>
<path d="M243.302 42.0105C227.746 35.614 212.383 35.1512 197.227 41.1071L190.903 18.5215H248.723L243.302 42.0105Z" fill="#2F2E41"/>
<path d="M271.308 212.758L283.052 234.44C302.806 228.93 319.926 211.561 336.354 191.075L331.837 176.621L303.831 183.848L271.308 212.758Z" fill="#E6E6E6"/>
<path d="M262.726 168.038H259.112C259.112 116.928 248.588 81.3095 238.333 81.3095L237.43 77.6958C246.627 77.6958 252.49 92.5198 255.789 104.956C260.262 121.815 262.726 144.218 262.726 168.038Z" fill="#3F3D56"/>
<path d="M179.61 155.39H175.996C175.996 108.581 186.592 79.5024 202.195 79.5024L201.292 83.1161C190.499 83.1161 179.61 105.464 179.61 155.39Z" fill="#3F3D56"/>
<path d="M260.918 177.976C265.908 177.976 269.952 173.931 269.952 168.941C269.952 163.952 265.908 159.907 260.918 159.907C255.929 159.907 251.884 163.952 251.884 168.941C251.884 173.931 255.929 177.976 260.918 177.976Z" fill="#3F3D56"/>
<path d="M165.156 177.073H161.542C161.542 164.121 168.837 153.583 177.804 153.583V157.197C170.829 157.197 165.156 166.113 165.156 177.073Z" fill="#3F3D56"/>
<path d="M194.064 177.073H190.451C190.451 166.113 184.777 157.197 177.803 157.197V153.583C186.769 153.583 194.064 164.121 194.064 177.073Z" fill="#3F3D56"/>
<path d="M192.258 181.59C194.254 181.59 195.872 179.972 195.872 177.976C195.872 175.98 194.254 174.362 192.258 174.362C190.262 174.362 188.645 175.98 188.645 177.976C188.645 179.972 190.262 181.59 192.258 181.59Z" fill="#3F3D56"/>
<path d="M163.348 181.59C165.344 181.59 166.962 179.972 166.962 177.976C166.962 175.98 165.344 174.362 163.348 174.362C161.352 174.362 159.734 175.98 159.734 177.976C159.734 179.972 161.352 181.59 163.348 181.59Z" fill="#3F3D56"/>
<path d="M118.177 144.746L140.724 148.772L192.258 222.048L164.88 215.606L118.177 144.746Z" fill="white"/>
<path d="M114.178 143.849C113.834 143.854 113.498 143.951 113.205 144.131C112.912 144.31 112.673 144.565 112.512 144.869C112.351 145.172 112.275 145.514 112.291 145.857C112.307 146.2 112.416 146.533 112.604 146.82L160.776 219.908C161.045 220.316 161.46 220.606 161.936 220.718L184.349 225.991C184.726 226.08 185.122 226.052 185.484 225.911C185.846 225.769 186.156 225.521 186.373 225.2C186.591 224.878 186.705 224.498 186.702 224.11C186.698 223.722 186.576 223.344 186.353 223.026L133.464 147.825C133.32 147.62 133.138 147.445 132.927 147.311C132.716 147.176 132.481 147.085 132.234 147.042L114.539 143.881C114.42 143.86 114.299 143.849 114.178 143.849Z" fill="#3F3D56"/>
<path d="M144.228 196.106L145.566 209.591L166.693 207.494C168.481 207.316 170.125 206.436 171.264 205.046C172.403 203.656 172.944 201.87 172.766 200.082C172.589 198.294 171.708 196.649 170.318 195.51C168.928 194.371 167.143 193.831 165.354 194.009L144.228 196.106Z" fill="#FFB9B9"/>
<path d="M125.856 194.544C125.887 199.142 127.734 203.542 130.994 206.784C134.255 210.026 138.665 211.849 143.263 211.854H146.737L149.266 190.779L128.326 183.24L125.856 194.544Z" fill="#E6E6E6"/>
<path d="M25.1762 489.796C39.5958 509.107 69.5282 511.139 69.5282 511.139C69.5282 511.139 76.0817 481.863 61.6621 462.552C47.2424 443.241 17.3101 441.208 17.3101 441.208C17.3101 441.208 10.7565 470.485 25.1762 489.796Z" fill="#E6E6E6"/>
<path d="M98.6328 497.055C89.1177 509.798 69.3662 511.139 69.3662 511.139C69.3662 511.139 65.0417 491.82 74.5568 479.078C84.0719 466.335 103.823 464.994 103.823 464.994C103.823 464.994 108.148 484.313 98.6328 497.055Z" fill="#E6E6E6"/>
<path d="M519.557 555.209H0V557.45H519.557V555.209Z" fill="#3F3D56"/>
</svg>
