<svg width="500" height="450" viewBox="0 0 500 450" fill="none" xmlns="http://www.w3.org/2000/svg">
<path d="M360.83 106.64L320.23 125.9L394.23 143.08L366.12 107.85C365.505 107.08 364.647 106.541 363.686 106.322C362.726 106.102 361.719 106.214 360.83 106.64Z" fill="#E0E0E0"/>
<path d="M320.582 125.99L394.156 143.07C394.251 143.092 394.334 143.152 394.386 143.235C394.438 143.318 394.455 143.419 394.433 143.514L384.677 185.537C384.623 185.767 384.481 185.966 384.281 186.091C384.08 186.216 383.839 186.256 383.609 186.202L311.058 169.359C310.828 169.306 310.629 169.163 310.504 168.963C310.379 168.763 310.339 168.521 310.392 168.291L320.148 126.269C320.17 126.175 320.227 126.093 320.309 126.041C320.39 125.989 320.488 125.97 320.582 125.99Z" fill="#E0E0E0"/>
<path d="M389.43 143.03L354.7 154.71L324.12 129.33L329.51 109.01C329.779 107.951 330.456 107.042 331.392 106.48C332.329 105.918 333.449 105.749 334.51 106.01L390.77 119.06C391.844 119.312 392.774 119.98 393.355 120.918C393.937 121.856 394.122 122.986 393.87 124.06L389.43 143.03Z" fill="white"/>
<path d="M352.5 151.27L310.93 165.77C310.829 166.204 310.815 166.654 310.888 167.093C310.961 167.533 311.12 167.954 311.356 168.332C311.592 168.71 311.9 169.037 312.263 169.296C312.626 169.555 313.036 169.74 313.47 169.84L381.2 185.56C381.634 185.661 382.084 185.675 382.523 185.602C382.963 185.529 383.384 185.37 383.762 185.134C384.14 184.898 384.467 184.59 384.726 184.227C384.985 183.864 385.17 183.454 385.27 183.02L385.33 182.77L356.26 152.22C355.791 151.717 355.187 151.36 354.52 151.192C353.853 151.023 353.152 151.051 352.5 151.27Z" fill="#E0E0E0"/>
<path d="M357.082 120.883L335.076 115.779L334.554 118.029L356.56 123.134L357.082 120.883Z" fill="#E0E0E0"/>
<path d="M382.593 132.812L333.76 121.484L333.17 124.027L382.003 135.355L382.593 132.812Z" fill="#F5F5F5"/>
<path d="M381.149 139.007L332.316 127.679L331.726 130.221L380.559 141.549L381.149 139.007Z" fill="#F5F5F5"/>
<path d="M378.33 146.78L376.28 147.45L335.05 138.4L330.87 134.86L330.95 134.26L379.62 145.55L379.43 146.39L378.33 146.78Z" fill="#F5F5F5"/>
<path d="M364.19 151.51L345.72 147.23L341.3 143.53L368.9 149.93L364.19 151.51Z" fill="#F5F5F5"/>
<path d="M350.98 151.8C350.484 152.06 349.965 152.275 349.43 152.44L345.12 153.99C341.48 155.28 336.45 156.99 330.88 158.92C325.31 160.85 320.25 162.51 316.58 163.71L312.24 165.11C311.715 165.307 311.173 165.454 310.62 165.55C311.12 165.298 311.638 165.084 312.17 164.91L316.47 163.36C320.11 162.07 325.14 160.36 330.71 158.43C336.28 156.5 341.33 154.84 345 153.64L349.35 152.25C349.881 152.06 350.426 151.91 350.98 151.8Z" fill="#EBEBEB"/>
<path d="M385.33 182.77C385.23 182.87 378.95 176.44 371.33 168.42C363.71 160.4 357.57 153.81 357.68 153.71C357.79 153.61 364.06 160.03 371.68 168.06C379.3 176.09 385.44 182.67 385.33 182.77Z" fill="#EBEBEB"/>
<path d="M391.12 142.46C390.717 142.685 390.295 142.876 389.86 143.03C389.04 143.36 387.86 143.83 386.36 144.39C383.36 145.51 379.28 147 374.71 148.57C370.14 150.14 365.96 151.48 362.93 152.41C361.41 152.87 360.18 153.24 359.33 153.47C358.896 153.625 358.447 153.732 357.99 153.79C358.4 153.582 358.829 153.411 359.27 153.28L362.82 152.06L374.54 148.06L386.24 144.06L389.79 142.86C390.22 142.685 390.665 142.551 391.12 142.46Z" fill="#EBEBEB"/>
<path d="M350.98 151.8C350.537 151.501 350.119 151.167 349.73 150.8L346.43 148.04L335.43 139.04C331.13 135.53 327.27 132.31 324.54 129.9C323.17 128.7 322.07 127.72 321.33 127.02C320.924 126.681 320.552 126.302 320.22 125.89C320.66 126.193 321.078 126.527 321.47 126.89L324.77 129.65L335.77 138.65C340.07 142.16 343.93 145.39 346.66 147.79C348.03 148.99 349.13 149.98 349.87 150.68C350.274 151.018 350.646 151.393 350.98 151.8Z" fill="#EBEBEB"/>
<path d="M389.43 143.03C389.421 142.933 389.421 142.836 389.43 142.74C389.43 142.53 389.53 142.25 389.6 141.91C389.76 141.15 389.99 140.09 390.28 138.75L392.9 127.12C393.04 126.5 393.18 125.87 393.32 125.23C393.495 124.594 393.622 123.945 393.7 123.29C393.738 122.61 393.598 121.932 393.292 121.323C392.987 120.714 392.528 120.196 391.96 119.82C391.352 119.436 390.671 119.184 389.96 119.08L387.69 118.56L382.95 117.47L361.86 112.6L340.77 107.68L336.03 106.57C335.293 106.371 334.545 106.214 333.79 106.1C333.087 106.054 332.385 106.198 331.757 106.516C331.129 106.835 330.598 107.316 330.22 107.91C329.882 108.503 329.646 109.149 329.52 109.82C329.16 111.14 328.82 112.41 328.52 113.63L325.38 125.13C325.01 126.46 324.72 127.5 324.5 128.25C324.407 128.583 324.327 128.853 324.26 129.06C324.242 129.155 324.208 129.246 324.16 129.33C324.16 129.33 324.16 129.23 324.21 129.04L324.4 128.22C324.59 127.47 324.85 126.42 325.19 125.08C325.9 122.32 326.91 118.38 328.19 113.54C328.51 112.32 328.84 111.04 329.19 109.72C329.325 109.017 329.575 108.341 329.93 107.72C330.337 107.068 330.91 106.537 331.59 106.18C332.293 105.807 333.086 105.637 333.88 105.69C334.661 105.801 335.436 105.954 336.2 106.15L340.94 107.24L362.03 112.12L383.12 117.01L387.85 118.12L390.12 118.65C390.892 118.766 391.631 119.042 392.29 119.46C392.914 119.881 393.418 120.458 393.751 121.133C394.084 121.808 394.235 122.558 394.19 123.31C394.107 123.986 393.974 124.654 393.79 125.31C393.64 125.95 393.49 126.58 393.34 127.19C392.18 132.06 391.23 136.01 390.57 138.78L389.79 141.93C389.7 142.26 389.63 142.53 389.57 142.74C389.538 142.843 389.491 142.941 389.43 143.03Z" fill="#E0E0E0"/>
<path d="M293.63 23.88L362.88 11L373.23 57.8L301.31 69.95L293.63 23.88Z" fill="#EBEBEB"/>
<path d="M362.88 11C362.88 11 362.88 11.07 362.76 11.2L362.37 11.74L360.83 13.8L355.12 21.34C350.12 27.71 343.34 36.48 335.8 46.22L335.67 46.39L335.47 46.29L334.13 45.58L305.44 30.33L296.77 25.66L294.43 24.36L293.83 24.01C293.757 23.9766 293.69 23.9329 293.63 23.88C293.708 23.8967 293.783 23.9271 293.85 23.97L294.48 24.27L296.87 25.48L305.61 30.01C313.01 33.89 323.16 39.23 334.37 45.13L335.72 45.84L335.39 45.91L354.78 21.12L360.67 13.68L362.29 11.68L362.72 11.17C362.765 11.1062 362.819 11.0489 362.88 11Z" fill="#E0E0E0"/>
<path d="M301.31 69.95C301.19 69.87 305.64 62.81 311.25 54.18C316.86 45.55 321.52 38.61 321.64 38.69C321.76 38.77 317.31 45.83 311.69 54.46C306.07 63.09 301.43 70.03 301.31 69.95Z" fill="#E0E0E0"/>
<path d="M373.23 57.8C373.14 57.91 366.66 52.95 358.76 46.73C350.86 40.51 344.53 35.35 344.61 35.22C344.69 35.09 351.18 40.07 359.08 46.3C366.98 52.53 373.31 57.69 373.23 57.8Z" fill="#E0E0E0"/>
<path d="M404.69 56.24L450.62 67.37L444.11 98.85L396.75 86.55L404.69 56.24Z" fill="#F5F5F5"/>
<path d="M450.62 67.37C450.461 67.4966 450.291 67.6072 450.11 67.7L448.61 68.55L443.03 71.55L424.41 81.55L424.22 81.65L424.09 81.48L423.46 80.68L410.12 63.47C408.46 61.29 407.12 59.47 406.12 58.21L405.05 56.77C404.919 56.6033 404.802 56.426 404.7 56.24C404.863 56.3737 405.008 56.5284 405.13 56.7L406.28 58.09C407.28 59.36 408.69 61.09 410.41 63.24C413.89 67.68 418.64 73.71 423.88 80.38L424.51 81.18L424.18 81.11L442.87 71.28L448.53 68.37L450.07 67.61C450.241 67.5034 450.426 67.4226 450.62 67.37Z" fill="#E0E0E0"/>
<path d="M396.75 86.55C396.67 86.43 401.31 83.29 407.12 79.55C412.93 75.81 417.7 72.87 417.77 72.99C417.84 73.11 413.21 76.25 407.4 79.99C401.59 83.73 396.83 86.67 396.75 86.55Z" fill="#E0E0E0"/>
<path d="M444.12 98.85C444 98.92 441.36 94.12 438.23 88.14C435.1 82.16 432.66 77.22 432.78 77.22C432.9 77.22 435.55 81.95 438.68 87.93C441.81 93.91 444.23 98.79 444.12 98.85Z" fill="#E0E0E0"/>
<path d="M356.92 336.87L358.03 337.27C358.75 337.55 359.85 337.92 361.31 338.33C365.572 339.519 370.006 339.969 374.42 339.66C377.606 339.44 380.766 338.931 383.86 338.14C387.547 337.236 391.14 335.984 394.59 334.4C402.981 330.432 410.437 324.734 416.47 317.68C418.219 315.73 419.577 313.462 420.47 311C421.382 308.422 421.245 305.589 420.09 303.11C419.446 301.878 418.482 300.842 417.3 300.11C416.082 299.367 414.717 298.896 413.3 298.73C410.362 298.379 407.385 298.865 404.71 300.13C403.299 300.747 401.845 301.262 400.36 301.67C398.81 302.075 397.177 302.033 395.65 301.55C394.852 301.322 394.124 300.899 393.53 300.32C392.937 299.74 392.497 299.022 392.25 298.23C392.058 297.418 392.041 296.574 392.202 295.754C392.362 294.935 392.696 294.16 393.18 293.48C394.137 292.101 395.46 291.017 397 290.35C398.516 289.679 400.076 289.114 401.67 288.66C408.145 286.576 414.24 283.459 419.72 279.43C421.146 278.442 422.442 277.28 423.58 275.97C424.772 274.711 425.48 273.071 425.58 271.34C425.565 270.487 425.312 269.656 424.85 268.94C424.37 268.22 423.73 267.621 422.98 267.19C421.419 266.338 419.686 265.853 417.91 265.77C416.068 265.687 414.237 265.436 412.44 265.02C411.499 264.798 410.624 264.356 409.887 263.73C409.15 263.104 408.571 262.313 408.2 261.42C408.033 260.944 407.977 260.435 408.038 259.934C408.099 259.433 408.274 258.952 408.55 258.53C409.135 257.755 409.87 257.106 410.71 256.62C412.27 255.62 413.81 254.53 415.3 253.39C418.31 251.091 421.139 248.564 423.76 245.83C426.36 243.06 429 240.18 430.63 236.7C431.479 234.984 431.885 233.083 431.81 231.17C431.693 229.253 430.928 227.434 429.64 226.01C428.341 224.599 426.702 223.544 424.88 222.945C423.058 222.347 421.113 222.224 419.23 222.59C415.483 223.403 412.084 225.368 409.51 228.21C404.24 233.76 401.64 241.08 397.32 247.15C396.256 248.679 395.054 250.109 393.73 251.42C393.083 252.105 392.343 252.694 391.53 253.17C391.102 253.432 390.614 253.578 390.113 253.596C389.612 253.613 389.115 253.501 388.67 253.27C388.269 252.99 387.929 252.631 387.671 252.214C387.413 251.798 387.242 251.334 387.17 250.85C387.045 249.931 387.045 248.999 387.17 248.08C387.288 247.214 387.254 246.334 387.07 245.48C386.855 244.653 386.42 243.899 385.81 243.3C385.196 242.703 384.47 242.234 383.673 241.92C382.877 241.606 382.026 241.453 381.17 241.47C379.456 241.579 377.835 242.287 376.59 243.47C375.332 244.617 374.342 246.027 373.69 247.6C373.059 249.174 372.642 250.825 372.45 252.51C372.24 254.19 372.18 255.87 372.12 257.51C372.06 259.15 372.01 260.86 371.96 262.51C371.847 265.843 371.737 269.117 371.63 272.33C371.57 273.94 371.54 275.53 371.46 277.14C371.399 278.741 371.092 280.322 370.55 281.83C370.287 282.598 369.857 283.298 369.292 283.881C368.727 284.463 368.04 284.914 367.28 285.2C365.752 285.644 364.117 285.538 362.66 284.9C359.872 283.715 357.419 281.861 355.52 279.5C354.593 278.365 353.794 277.131 353.14 275.82C352.542 274.535 351.874 273.283 351.14 272.07C350.462 270.903 349.403 270.006 348.14 269.53C346.867 269.147 345.497 269.243 344.29 269.8C343.092 270.323 342.043 271.138 341.24 272.17C340.479 273.202 339.947 274.385 339.68 275.64C339.288 278.112 339.068 280.608 339.02 283.11C338.85 285.55 338.77 287.94 338.74 290.25C338.691 294.617 338.955 298.981 339.53 303.31C340.01 307.075 340.823 310.789 341.96 314.41C342.42 316.1 343.1 317.64 343.65 319.14C343.96 319.87 344.3 320.57 344.65 321.26C345 321.95 345.26 322.63 345.65 323.26C347.711 327.174 350.377 330.738 353.55 333.82C354.008 334.304 354.499 334.755 355.02 335.17L356.13 336.11L357.01 336.88L356.09 336.15L354.97 335.23C354.442 334.823 353.944 334.378 353.48 333.9C350.27 330.834 347.569 327.276 345.48 323.36C345.112 322.711 344.779 322.043 344.48 321.36C344.16 320.67 343.8 319.97 343.48 319.23C342.92 317.73 342.23 316.23 341.76 314.5C340.604 310.865 339.778 307.133 339.29 303.35C338.687 299.013 338.407 294.638 338.45 290.26C338.45 287.94 338.55 285.55 338.71 283.1C338.758 280.575 338.975 278.056 339.36 275.56C339.638 274.255 340.19 273.025 340.98 271.95C341.817 270.865 342.914 270.008 344.17 269.46C345.463 268.857 346.933 268.75 348.3 269.16C349.659 269.665 350.805 270.617 351.55 271.86C352.285 273.086 352.953 274.351 353.55 275.65C354.189 276.93 354.971 278.135 355.88 279.24C357.748 281.542 360.151 283.352 362.88 284.51C364.247 285.102 365.776 285.205 367.21 284.8C367.908 284.532 368.539 284.113 369.057 283.574C369.576 283.035 369.969 282.388 370.21 281.68C371.31 278.79 371.07 275.53 371.21 272.32C371.35 269.11 371.42 265.82 371.53 262.51C371.58 260.85 371.63 259.18 371.69 257.51C371.75 255.84 371.8 254.12 372.02 252.42C372.212 250.704 372.636 249.022 373.28 247.42C373.95 245.779 374.974 244.307 376.28 243.11C377.617 241.866 379.346 241.126 381.17 241.02C382.095 241.003 383.013 241.172 383.872 241.515C384.731 241.859 385.512 242.37 386.17 243.02C386.844 243.681 387.325 244.515 387.56 245.43C387.764 246.335 387.805 247.27 387.68 248.19C387.56 249.062 387.56 249.947 387.68 250.82C387.733 251.235 387.873 251.635 388.09 251.993C388.307 252.352 388.596 252.66 388.94 252.9C389.308 253.092 389.72 253.182 390.135 253.163C390.549 253.144 390.951 253.015 391.3 252.79C392.07 252.336 392.773 251.777 393.39 251.13C394.683 249.835 395.861 248.429 396.91 246.93C398.977 243.823 400.883 240.612 402.62 237.31C404.393 233.918 406.587 230.763 409.15 227.92C411.797 224.997 415.295 222.979 419.15 222.15C421.122 221.767 423.16 221.897 425.068 222.525C426.976 223.154 428.691 224.26 430.05 225.74C431.413 227.251 432.224 229.179 432.35 231.21C432.428 233.209 432.005 235.196 431.12 236.99C429.44 240.57 426.77 243.47 424.12 246.26C421.481 249.013 418.633 251.557 415.6 253.87C414.1 255.02 412.55 256.1 410.98 257.12C410.203 257.568 409.523 258.166 408.98 258.88C408.743 259.237 408.593 259.644 408.541 260.069C408.489 260.495 408.536 260.926 408.68 261.33C409.028 262.143 409.562 262.863 410.239 263.431C410.917 263.999 411.719 264.399 412.58 264.6C414.347 265.011 416.148 265.255 417.96 265.33C419.811 265.426 421.615 265.939 423.24 266.83C424.043 267.307 424.726 267.96 425.24 268.74C425.75 269.535 426.03 270.456 426.05 271.4C425.967 273.261 425.227 275.033 423.96 276.4C422.78 277.74 421.436 278.926 419.96 279.93C414.436 283.985 408.294 287.122 401.77 289.22C400.192 289.662 398.648 290.216 397.15 290.88C395.68 291.516 394.421 292.556 393.52 293.88C393.068 294.504 392.755 295.218 392.602 295.974C392.448 296.729 392.458 297.509 392.63 298.26C392.861 298.978 393.265 299.627 393.808 300.151C394.351 300.674 395.014 301.055 395.74 301.26C397.189 301.721 398.74 301.759 400.21 301.37C401.675 300.972 403.109 300.467 404.5 299.86C407.248 298.577 410.298 298.086 413.31 298.44C414.781 298.629 416.195 299.126 417.46 299.9C418.704 300.669 419.717 301.761 420.39 303.06C421.589 305.637 421.725 308.583 420.77 311.26C419.862 313.769 418.476 316.078 416.69 318.06C410.624 325.134 403.125 330.84 394.69 334.8C391.22 336.382 387.607 337.627 383.9 338.52C380.791 339.298 377.618 339.796 374.42 340.01C369.983 340.291 365.531 339.804 361.26 338.57C360.152 338.256 359.06 337.885 357.99 337.46L356.92 336.87Z" fill="#263238"/>
<path d="M362.51 324.67C366.213 314.019 370.524 303.588 375.42 293.43C376.7 290.73 377.97 288.05 379.23 285.43C380.49 282.81 381.72 280.2 383.1 277.72C385.749 272.977 388.657 268.383 391.81 263.96C394.81 259.72 397.81 255.8 400.6 252.16C403.39 248.52 406.12 245.16 408.71 242.24C412.775 237.581 417.202 233.251 421.95 229.29C423.63 227.89 424.95 226.84 425.88 226.15L426.93 225.36C427.046 225.266 427.169 225.182 427.3 225.11L426.97 225.41L425.97 226.24C425.08 226.97 423.77 228.04 422.11 229.47C417.435 233.493 413.066 237.858 409.04 242.53C406.48 245.48 403.81 248.83 401.04 252.47C398.27 256.11 395.28 260.05 392.31 264.29C389.183 268.703 386.299 273.283 383.67 278.01C382.3 280.47 381.07 283.06 379.82 285.69L376.02 293.69C371.128 303.825 366.811 314.228 363.09 324.85" fill="#263238"/>
<path d="M383.27 277.7C383.135 277.237 383.048 276.761 383.01 276.28C382.87 275.37 382.71 274.04 382.55 272.39C382.21 269.1 381.9 264.55 381.55 259.52C381.2 254.49 380.85 249.95 380.47 246.68C380.28 245.04 380.11 243.68 379.98 242.8C379.88 242.33 379.839 241.85 379.86 241.37C380.026 241.82 380.146 242.286 380.22 242.76C380.41 243.67 380.64 244.99 380.89 246.62C381.39 249.89 381.83 254.45 382.15 259.48C382.47 264.51 382.74 268.93 382.95 272.36C383.06 273.9 383.15 275.21 383.22 276.26C383.289 276.737 383.306 277.219 383.27 277.7Z" fill="#263238"/>
<path d="M425.81 271.44C425.252 271.537 424.686 271.581 424.12 271.57C423.03 271.63 421.46 271.7 419.51 271.85C415.63 272.12 410.28 272.67 404.4 273.55C399.19 274.33 394.12 275.26 389.4 276.31C387.5 276.73 385.97 277.1 384.91 277.31C384.365 277.476 383.806 277.593 383.24 277.66C383.754 277.409 384.294 277.214 384.85 277.08C385.85 276.76 387.41 276.32 389.31 275.85C393.09 274.85 398.39 273.79 404.31 272.9C409.341 272.134 414.407 271.626 419.49 271.38C421.44 271.28 423.02 271.28 424.11 271.3C424.68 271.285 425.25 271.332 425.81 271.44Z" fill="#263238"/>
<path d="M363.06 323.91C362.946 323.75 362.855 323.575 362.79 323.39L362.13 321.83C361.56 320.48 360.78 318.5 359.86 316.04C358.01 311.12 355.67 304.25 353.19 296.63C350.71 289.01 348.43 282.12 346.68 277.18C345.83 274.77 345.12 272.79 344.6 271.32C344.38 270.68 344.19 270.16 344.04 269.72C343.962 269.538 343.908 269.346 343.88 269.15C343.997 269.311 344.088 269.49 344.15 269.68L344.82 271.23C345.39 272.59 346.16 274.57 347.08 277.03C348.93 281.94 351.28 288.82 353.76 296.44C356.24 304.06 359.51 312.04 361.26 316.99C362.11 319.4 361.82 320.27 362.34 321.74C362.57 322.38 362.75 322.91 362.9 323.34C362.977 323.523 363.03 323.714 363.06 323.91Z" fill="#263238"/>
<path d="M419.88 308C419.699 308.093 419.508 308.163 419.31 308.21L417.66 308.69L411.58 310.4C406.44 311.85 399.37 313.94 391.58 316.25C384.27 318.41 377.47 320.37 371.5 321.92C368.92 322.6 366.82 323.12 365.36 323.45L363.68 323.82C363.488 323.877 363.29 323.907 363.09 323.91C363.27 323.815 363.461 323.744 363.66 323.7L365.31 323.22L371.39 321.51C376.53 320.06 383.6 317.97 391.39 315.66C399.18 313.35 406.3 311.33 411.47 309.99C414.05 309.31 416.15 308.79 417.6 308.46L419.28 308.09C419.475 308.033 419.677 308.003 419.88 308Z" fill="#263238"/>
<path d="M254.9 93.63C254.9 93.63 254.32 90.8499 253.35 82.8099L244.51 65.4799C244.51 65.4799 246.51 61.8499 251.02 69.5299C253.1 73.0299 260.02 71.53 258.9 66.07C257.78 60.61 250.62 58.0699 246.24 63.5099C246.24 63.5099 243.41 63.7999 243.08 61.5899C242.75 59.3799 249.14 53.92 254.58 55.51C256.797 56.208 258.842 57.3666 260.58 58.91C260.58 58.91 259.4 40.6899 260.88 40.5299C262.36 40.3699 264.41 41.53 265.53 61.46C265.53 61.46 266.15 45.6899 266.46 43.6799C266.77 41.6699 269.46 40.3099 269.82 45.3599C269.82 45.9199 270.82 61.4199 270.82 61.4199C270.82 61.4199 272.59 51.1699 272.82 50.3499C273.32 48.1899 275.45 48.4199 275.66 51.2799C275.81 53.4499 276.51 62.71 276.51 62.71L277.85 91.22H278.03" fill="#FFBE9D"/>
<path d="M283.18 84.22L249.98 83.36L246.68 163.7L209.12 147.22L209.06 147.35C206.8 146.35 204.83 145.45 203.78 144.87C183.03 133.56 169.41 132.18 147.14 140.13L104.48 157.21C96.22 161.1 74.73 164.69 67.36 198.67L66.36 202.73L100.5 227.22L123.91 288.92L151.91 350.68L216.36 348.59L250.04 306.59L221.46 252L203.7 190.86C216.25 199.19 239.54 210.53 267.43 204.62C297.68 198.22 283.18 84.22 283.18 84.22Z" fill="#D50000"/>
<g opacity="0.3">
<path d="M123.69 288.29C128.814 291.409 134.342 293.808 140.12 295.42C143.26 296.36 146.86 297.05 149.65 295.33C152.44 293.61 152.87 288.52 149.75 287.5L176.8 281.39C173.13 270.83 179.18 258.78 188.33 252.39C197.48 246 207.88 244.14 219.02 243.17L232.51 285.02L187.42 346.52L150.5 347.59L123.69 288.29Z" fill="black"/>
</g>
<path d="M109.54 230.48C109.54 230.48 92.63 267.48 96.54 285.92C98.7 296.24 132.47 305.05 153.99 307.68L147.54 343.8C147.54 343.8 67.54 336.19 52.59 304.52C44.09 286.52 52.7 242.52 68.89 192.72L109.54 230.48Z" fill="#D50000"/>
<path d="M186.56 273.81C186.382 273.934 186.191 274.038 185.99 274.12L184.3 274.9C182.83 275.58 180.68 276.51 178.01 277.63C172.67 279.85 165.19 282.71 156.78 285.41C148.37 288.11 140.62 290.13 134.98 291.41C132.16 292.06 129.87 292.55 128.28 292.85L126.45 293.19C126.241 293.247 126.026 293.277 125.81 293.28C126.009 293.194 126.217 293.13 126.43 293.09L128.24 292.65C129.82 292.29 132.09 291.74 134.9 291.05C140.51 289.66 148.22 287.58 156.62 284.89C165.02 282.2 172.5 279.4 177.87 277.26C180.56 276.2 182.72 275.32 184.22 274.7L185.94 274C186.139 273.915 186.347 273.851 186.56 273.81Z" fill="white"/>
<path d="M208.83 146.03C208.83 146.16 177.36 157.59 138.44 171.55C99.52 185.51 67.91 196.72 67.86 196.55C67.81 196.38 99.33 184.99 138.26 171.03C177.19 157.07 208.78 145.89 208.83 146.03Z" fill="white"/>
<path d="M101.32 249.22C101.337 249.143 101.364 249.07 101.4 249L101.66 248.38L102.66 245.99C103.54 243.91 104.79 240.88 106.06 237.05C107.556 232.558 108.582 227.924 109.12 223.22C109.783 217.476 109.362 211.659 107.88 206.07C106.425 200.467 103.553 195.332 99.54 191.16C96.203 187.82 92.1009 185.345 87.59 183.95C84.5456 183.021 81.3517 182.681 78.18 182.95L76.69 183.14C76.26 183.2 75.91 183.29 75.61 183.34L74.95 183.47H74.72C74.72 183.47 74.79 183.47 74.93 183.4L75.59 183.22C75.88 183.15 76.24 183.04 76.67 182.96L78.16 182.73C81.3616 182.378 84.6012 182.667 87.69 183.58C92.2887 184.939 96.4776 187.42 99.88 190.8C103.971 195.017 106.9 200.223 108.38 205.91C109.88 211.561 110.294 217.445 109.6 223.25C109.027 227.973 107.954 232.623 106.4 237.12C105.08 240.95 103.78 243.96 102.84 246.02C102.36 247.02 101.98 247.84 101.71 248.37L101.4 248.98C101.37 249.13 101.33 249.22 101.32 249.22Z" fill="#263238"/>
<path d="M181.67 137.7C181.87 137.76 182.061 137.844 182.24 137.95C182.777 138.216 183.295 138.521 183.79 138.86C185.626 140.101 187.256 141.623 188.62 143.37C190.621 145.976 192.219 148.869 193.36 151.95C194.719 155.709 195.878 159.538 196.83 163.42L202.4 184.42L204.02 190.81L204.44 192.55C204.502 192.751 204.539 192.96 204.55 193.17C204.458 192.982 204.387 192.784 204.34 192.58C204.21 192.13 204.04 191.58 203.83 190.86L202.04 184.52L196.33 163.52C195.23 159.42 194.22 155.52 192.91 152.08C191.803 149.033 190.261 146.164 188.33 143.56C187.012 141.817 185.445 140.277 183.68 138.99C182.42 138.13 181.64 137.74 181.67 137.7Z" fill="#263238"/>
<path d="M236.97 159.22L236.53 159.43L235.2 160.01L230.12 162.15C225.68 164.03 219.23 166.69 211.25 169.95C195.25 176.46 173.15 185.25 148.54 194.53C123.93 203.81 101.54 211.84 85.21 217.53C77.07 220.36 70.47 222.61 65.9 224.14L60.63 225.89L59.26 226.33L58.78 226.47L59.24 226.28L60.6 225.79L65.83 223.95L85.09 217.18C101.34 211.44 123.74 203.36 148.36 194.08C172.98 184.8 195.12 176.08 211.11 169.64L230.04 162L235.19 159.92L236.54 159.39L236.97 159.22Z" fill="white"/>
<path d="M207.69 199.09L207.31 199.27L206.17 199.76L201.76 201.59C197.93 203.18 192.37 205.41 185.47 208.12C171.67 213.53 152.47 220.72 131.1 228.04C109.73 235.36 90.1 241.41 75.91 245.58C68.8 247.66 63.03 249.3 59.03 250.39L54.43 251.64L53.23 251.95C53.0966 251.993 52.9593 252.023 52.82 252.04C52.9462 251.983 53.0766 251.936 53.21 251.9L54.4 251.54L58.98 250.22C62.98 249.07 68.71 247.37 75.81 245.22C90 240.97 109.54 234.86 130.93 227.55C152.32 220.24 171.51 213.1 185.34 207.77C192.25 205.11 197.83 202.93 201.68 201.4L206.13 199.66L207.29 199.22L207.69 199.09Z" fill="white"/>
<path d="M285.87 164.47C285.692 164.653 285.498 164.821 285.29 164.97L283.54 166.33C282.78 166.92 281.84 167.63 280.73 168.42C279.62 169.21 278.37 170.14 276.94 171.09C274.11 173.04 270.66 175.25 266.75 177.57C262.84 179.89 258.44 182.28 253.75 184.57C249.06 186.86 244.44 188.85 240.22 190.57C236 192.29 232.12 193.57 228.84 194.62C227.21 195.16 225.71 195.62 224.4 195.97C223.09 196.32 221.96 196.67 221.03 196.9L218.88 197.45C218.635 197.52 218.384 197.57 218.13 197.6C218.362 197.492 218.603 197.405 218.85 197.34L220.97 196.71C221.89 196.44 222.97 196.11 224.32 195.71C225.67 195.31 227.1 194.86 228.72 194.29C231.98 193.21 235.82 191.81 240.04 190.14C244.26 188.47 248.82 186.45 253.52 184.14C258.22 181.83 262.6 179.45 266.52 177.14C270.44 174.83 273.89 172.67 276.74 170.76C278.18 169.83 279.44 168.93 280.57 168.16C281.7 167.39 282.65 166.71 283.43 166.16L285.23 164.88C285.43 164.723 285.644 164.586 285.87 164.47Z" fill="white"/>
<path d="M287.43 137.79C287.48 137.93 278.3 141.62 266.93 146.04C255.56 150.46 246.29 153.93 246.24 153.79C246.19 153.65 255.36 149.97 266.74 145.55C278.12 141.13 287.38 137.66 287.43 137.79Z" fill="white"/>
<path d="M285.41 112.91C285.41 113.05 277.41 115.46 267.41 118.29C257.41 121.12 249.3 123.29 249.26 123.16C249.22 123.03 257.26 120.62 267.26 117.79C277.26 114.96 285.37 112.77 285.41 112.91Z" fill="white"/>
<path d="M283.65 88.57C283.65 88.71 275.88 90.57 266.23 92.66C256.58 94.75 248.74 96.39 248.71 96.25C248.68 96.11 256.47 94.25 266.12 92.16C275.77 90.07 283.61 88.43 283.65 88.57Z" fill="white"/>
<path d="M213.99 226.62C213.99 226.75 191.79 235.62 164.3 246.48C136.81 257.34 114.47 266 114.42 265.87C114.37 265.74 136.61 256.87 164.11 246C191.61 235.13 213.94 226.48 213.99 226.62Z" fill="white"/>
<path d="M96.35 270.65C96.2087 270.74 96.0578 270.814 95.9 270.87L94.56 271.42C93.39 271.88 91.69 272.53 89.56 273.31C85.34 274.87 79.47 276.92 72.93 279C66.39 281.08 60.41 282.81 56.07 284C53.9 284.58 52.13 285 50.91 285.34L49.5 285.67C49.3384 285.722 49.1698 285.749 49 285.75C49.1476 285.668 49.3058 285.608 49.47 285.57L50.86 285.14L55.97 283.64C60.28 282.38 66.23 280.64 72.77 278.52C79.31 276.4 85.18 274.44 89.43 272.97L94.43 271.24L95.8 270.78C95.974 270.704 96.1603 270.66 96.35 270.65Z" fill="white"/>
<path d="M108.22 295.99C108.28 296.12 97.5 300.62 84.15 306.04C70.8 311.46 59.92 315.75 59.87 315.62C59.82 315.49 70.59 310.98 83.95 305.56C97.31 300.14 108.17 295.85 108.22 295.99Z" fill="white"/>
<path d="M127.85 302.99C127.96 303.09 121.91 310.25 114.35 318.99C106.79 327.73 100.56 334.74 100.45 334.65C100.34 334.56 106.39 327.39 113.95 318.65C121.51 309.91 127.74 302.9 127.85 302.99Z" fill="white"/>
<path d="M147.92 308.09C148.06 308.14 145.63 315.76 142.5 325.09C139.37 334.42 136.72 342 136.59 341.95C136.46 341.9 138.88 334.29 142.01 324.95C145.14 315.61 147.78 308.04 147.92 308.09Z" fill="white"/>
<path d="M279.12 195.57C279.18 195.7 273.43 198.08 266.28 200.88C259.13 203.68 253.28 205.83 253.28 205.7C253.28 205.57 258.98 203.19 266.13 200.39C273.28 197.59 279.06 195.43 279.12 195.57Z" fill="white"/>
<g opacity="0.3">
<path d="M193.77 153.79C203.05 178.92 219.77 192.97 243.38 205.57C229.418 204.022 216.037 199.12 204.38 191.28" fill="black"/>
</g>
<path d="M185.36 354.22H363.49V278.12C363.491 274.73 362.825 271.372 361.528 268.24C360.232 265.107 358.331 262.261 355.934 259.863C353.537 257.465 350.691 255.563 347.559 254.265C344.427 252.968 341.07 252.3 337.68 252.3H211.18C204.332 252.3 197.765 255.02 192.922 259.862C188.08 264.705 185.36 271.272 185.36 278.12V354.22Z" fill="#455A64"/>
<path d="M208.45 252.3H236.75C239.524 252.3 242.185 253.402 244.146 255.363C246.108 257.325 247.21 259.986 247.21 262.76V352.89C247.21 353.243 247.07 353.581 246.82 353.83C246.571 354.08 246.233 354.22 245.88 354.22H186.7C186.347 354.22 186.009 354.08 185.76 353.83C185.51 353.581 185.37 353.243 185.37 352.89V275.39C185.37 269.268 187.801 263.396 192.129 259.066C196.457 254.736 202.328 252.302 208.45 252.3Z" fill="#455A64"/>
<path d="M198.5 354.22V278.01C198.5 271.193 201.207 264.655 206.027 259.834C210.846 255.012 217.383 252.302 224.2 252.3H205.88C205.88 252.3 184.37 255.16 184.37 282.08C184.37 309 185.06 354.22 185.06 354.22H198.5Z" fill="#263238"/>
<path d="M247.21 346.98H97.76V355.46H247.21V346.98Z" fill="#263238"/>
<path d="M369.31 346.98H247.21V355.46H369.31V346.98Z" fill="#455A64"/>
<path d="M247.21 351.22C247.197 351.12 247.197 351.019 247.21 350.92C247.21 350.69 247.21 350.39 247.21 350.02C247.21 349.2 247.21 348.02 247.21 346.59C247.21 343.59 247.21 339.28 247.21 333.98C247.26 323.29 247.34 308.6 247.43 292.36C247.43 288.3 247.56 284.36 247.31 280.52C247.137 276.859 246.491 273.235 245.39 269.74C243.773 264.779 240.641 260.45 236.434 257.362C232.227 254.275 227.158 252.585 221.94 252.53C221.273 252.508 220.605 252.525 219.94 252.58C219.458 252.598 218.977 252.644 218.5 252.72L217.62 252.84H217.31L217.61 252.77L218.49 252.6C218.965 252.504 219.446 252.44 219.93 252.41C220.594 252.331 221.262 252.298 221.93 252.31C226.18 252.289 230.365 253.353 234.09 255.4C239.72 258.386 243.943 263.475 245.84 269.56C246.972 273.096 247.644 276.762 247.84 280.47C248.09 284.31 248.01 288.29 247.97 292.35C247.82 308.58 247.69 323.28 247.59 333.96C247.52 339.26 247.46 343.56 247.42 346.58C247.42 348.04 247.36 349.19 247.35 350.01V350.9C247.314 351.011 247.267 351.118 247.21 351.22Z" fill="#263238"/>
<path d="M368.47 346.77C368.47 346.91 340.65 347.08 306.35 347.14C272.05 347.2 244.23 347.14 244.23 346.98C244.23 346.82 272.03 346.67 306.35 346.61C340.67 346.55 368.47 346.63 368.47 346.77Z" fill="#263238"/>
<path d="M368.47 355.8C368.47 355.94 340.85 355.98 306.8 355.89C272.75 355.8 245.12 355.61 245.13 355.46C245.14 355.31 272.73 355.28 306.8 355.37C340.87 355.46 368.47 355.65 368.47 355.8Z" fill="#263238"/>
<path d="M352.39 337.3C352.39 337.3 352.39 337.17 352.39 336.94C352.39 336.71 352.39 336.34 352.39 335.89C352.39 334.96 352.39 333.61 352.39 331.89C352.39 328.38 352.34 323.27 352.31 316.81L352.46 316.97L272.53 317.07C272.64 316.96 272.26 317.33 272.78 316.81V337.31L272.52 337.06L329.52 337.17L346.33 337.24H350.87H352.05H352.46C352.334 337.25 352.206 337.25 352.08 337.24H350.93H346.45L329.7 337.31L272.52 337.43H272.27V337.17C272.27 333.837 272.27 330.47 272.27 327.07V316.67C272.79 316.15 272.42 316.53 272.54 316.41L352.47 316.51H352.63V316.67C352.63 323.17 352.56 328.31 352.54 331.85C352.54 333.583 352.54 334.917 352.54 335.85C352.54 336.28 352.54 336.62 352.54 336.85C352.509 337.006 352.458 337.157 352.39 337.3Z" fill="#263238"/>
<path d="M307.25 322.07V331.22H306.32V323.92L302.74 330.06H302.28L298.7 323.96V331.22H297.78V322.1H298.57L302.57 328.86L306.49 322.1L307.25 322.07Z" fill="#263238"/>
<path d="M315.94 328.75H310.86L309.76 331.19H308.76L312.93 322.07H313.88L318.05 331.19H317.05L315.94 328.75ZM315.59 327.97L313.4 323.07L311.21 327.97H315.59Z" fill="#263238"/>
<path d="M319.56 322.07H320.56V331.22H319.56V322.07Z" fill="#263238"/>
<path d="M323.5 322.07H324.5V330.35H329.61V331.22H323.54L323.5 322.07Z" fill="#263238"/>
<path d="M342.12 231.44V216.44H314.12V276.58C311.853 277.92 310.095 279.974 309.123 282.421C308.151 284.869 308.019 287.569 308.749 290.099C309.479 292.63 311.028 294.845 313.154 296.399C315.28 297.953 317.862 298.756 320.494 298.683C323.126 298.61 325.659 297.664 327.696 295.995C329.732 294.325 331.156 292.027 331.744 289.46C332.332 286.893 332.05 284.204 330.944 281.815C329.837 279.425 327.968 277.472 325.63 276.26V231.44H342.12Z" fill="#D50000"/>
<path d="M320.46 291.2C322.989 291.2 325.04 289.149 325.04 286.62C325.04 284.091 322.989 282.04 320.46 282.04C317.931 282.04 315.88 284.091 315.88 286.62C315.88 289.149 317.931 291.2 320.46 291.2Z" fill="#263238"/>
<path d="M148.41 140.5C148.513 140.696 148.6 140.9 148.67 141.11C148.903 141.708 149.1 142.319 149.26 142.94C149.849 145.224 150.079 147.586 149.94 149.94C149.742 153.451 148.747 156.871 147.03 159.94C144.887 163.719 141.618 166.736 137.68 168.57C133.755 170.452 129.317 170.979 125.06 170.07C121.622 169.273 118.441 167.622 115.81 165.27C114.045 163.69 112.555 161.828 111.4 159.76C111.086 159.204 110.805 158.63 110.56 158.04C110.458 157.84 110.381 157.629 110.33 157.41C110.39 157.41 110.72 158.25 111.58 159.66C112.781 161.661 114.289 163.459 116.05 164.99C118.657 167.258 121.788 168.842 125.16 169.6C129.315 170.46 133.637 169.93 137.46 168.09C141.303 166.301 144.502 163.372 146.62 159.7C148.322 156.691 149.33 153.339 149.57 149.89C149.745 147.564 149.573 145.225 149.06 142.95C148.7 141.37 148.35 140.52 148.41 140.5Z" fill="#263238"/>
<path d="M233.53 295.3L247.18 295.12L246.65 341.49L233.98 341.99L233.53 295.3Z" fill="#EBEBEB"/>
<path d="M233.98 341.99C235.848 339.576 237.852 337.269 239.98 335.08C241.999 332.772 244.149 330.581 246.42 328.52C244.526 330.931 242.503 333.238 240.36 335.43C238.356 337.733 236.226 339.923 233.98 341.99Z" fill="#263238"/>
<path d="M247.18 310.74C244.724 308.385 242.388 305.909 240.18 303.32C237.837 300.85 235.624 298.26 233.55 295.56C236.009 297.912 238.345 300.389 240.55 302.98C242.889 305.453 245.102 308.043 247.18 310.74Z" fill="#263238"/>
<path d="M131.27 91.9199C131.27 92.6242 131.476 93.313 131.864 93.9011C132.251 94.4892 132.803 94.9507 133.45 95.2285C134.097 95.5063 134.811 95.5882 135.505 95.464C136.198 95.3399 136.839 95.0151 137.35 94.5299C139.28 92.6999 138.62 89.4799 137.42 87.0999C136.22 84.7199 134.56 82.31 134.91 79.68C135.18 77.68 136.58 76.0099 137.52 74.1999C138.352 72.6292 138.808 70.8865 138.852 69.1094C138.895 67.3323 138.525 65.5694 137.77 63.9599C136.975 62.3678 135.756 61.0259 134.248 60.082C132.739 59.138 130.999 58.6286 129.22 58.6099C125.61 58.6799 121.8 60.9399 118.59 59.2799C116.26 58.0699 115.29 55.2799 113.26 53.5599C110.13 50.9699 105.4 51.8299 101.69 53.5599C97.98 55.2899 94.43 57.6799 90.36 57.8799C86.97 58.0399 83.71 56.6199 80.36 56.1599C76.6891 55.6649 72.9551 56.326 69.6774 58.0514C66.3997 59.7769 63.7411 62.4808 62.0714 65.7873C60.4017 69.0937 59.8038 72.8383 60.3609 76.5003C60.9181 80.1623 62.6025 83.5597 65.18 86.2199C66.9711 88.2029 69.4034 89.4916 72.05 89.8599" fill="#263238"/>
<path d="M135.8 168.34C130.712 170.017 125.166 169.608 120.378 167.203C115.591 164.798 111.952 160.593 110.26 155.51C108.26 149.45 106.55 144.35 106.55 144.35C106.55 144.35 90.45 146.81 85.41 131.52C80.37 116.23 72.41 82.2099 72.41 82.2099L71.92 80.1499C87.28 66.8999 109.12 64.6899 128.17 71.6399L129.17 74.8099L149.17 144.12C150.431 149.1 149.752 154.373 147.269 158.871C144.786 163.368 140.686 166.753 135.8 168.34Z" fill="#FFBE9D"/>
<path d="M85.88 104.76C86.2644 104.477 86.5543 104.085 86.7113 103.635C86.8683 103.184 86.8851 102.697 86.7595 102.237C86.6339 101.776 86.3717 101.365 86.0077 101.057C85.6436 100.749 85.1946 100.558 84.72 100.51C84.1526 100.44 83.5809 100.599 83.13 100.95C82.7385 101.23 82.4418 101.622 82.2797 102.075C82.1176 102.528 82.0978 103.02 82.2229 103.484C82.348 103.949 82.612 104.364 82.9797 104.674C83.3473 104.984 83.801 105.175 84.28 105.22C84.5638 105.252 84.8513 105.228 85.1258 105.149C85.4004 105.071 85.6567 104.938 85.88 104.76Z" fill="#263238"/>
<path d="M79.49 102.84C79.82 103.03 80.96 101.39 83.07 100.71C85.18 100.03 87.07 100.64 87.2 100.3C87.28 100.14 86.89 99.74 86.06 99.44C84.9542 99.0723 83.7598 99.0681 82.6514 99.428C81.5431 99.7878 80.5789 100.493 79.9 101.44C79.41 102.22 79.34 102.76 79.49 102.84Z" fill="#263238"/>
<path d="M105.29 96.2199C104.987 96.57 104.795 97.0021 104.738 97.4614C104.681 97.9207 104.761 98.3866 104.969 98.8002C105.176 99.2139 105.502 99.5567 105.904 99.7852C106.307 100.014 106.768 100.118 107.23 100.084C107.691 100.051 108.133 99.881 108.498 99.5966C108.863 99.3122 109.136 98.9259 109.281 98.4866C109.427 98.0473 109.439 97.5746 109.316 97.1284C109.193 96.6822 108.94 96.2826 108.59 95.9799C108.119 95.5768 107.509 95.3758 106.891 95.4207C106.273 95.4657 105.697 95.7529 105.29 96.2199Z" fill="#263238"/>
<path d="M102.49 97.6899C102.81 97.8799 103.95 96.2499 106.06 95.5699C108.17 94.8899 110.06 95.4999 110.2 95.1499C110.28 94.9999 109.89 94.5899 109.06 94.2999C107.954 93.9323 106.76 93.9281 105.651 94.288C104.543 94.6478 103.579 95.3529 102.9 96.2999C102.41 97.0599 102.33 97.6099 102.49 97.6899Z" fill="#263238"/>
<path d="M99.52 117.81C99.52 117.65 98.09 117.81 95.88 118.19C95.31 118.31 94.82 118.33 94.67 118.02C94.4659 117.47 94.4277 116.872 94.56 116.3C94.66 114.74 94.76 113.14 94.87 111.47C95.24 104.62 95.28 99.06 94.96 99.04C94.64 99.02 94.06 104.56 93.68 111.41C93.6 113.08 93.53 114.67 93.46 116.24C93.328 117.055 93.4761 117.89 93.88 118.61C94.0212 118.793 94.2035 118.939 94.4119 119.038C94.6204 119.137 94.8493 119.186 95.08 119.18C95.4197 119.171 95.7563 119.113 96.08 119.01C98.23 118.42 99.55 117.97 99.52 117.81Z" fill="#263238"/>
<path d="M107.12 117.98C108.91 115.98 102.12 123.11 97.71 124.26C98.7768 125.145 100.113 125.643 101.499 125.67C102.885 125.697 104.239 125.253 105.34 124.41C109.4 121.28 107.12 117.98 107.12 117.98Z" fill="white"/>
<path d="M106.46 144.14C113.586 142.035 119.925 137.858 124.67 132.14C124.67 132.14 123.43 144.68 107.67 148.14L106.46 144.14Z" fill="#EB996E"/>
<path d="M131.39 85.29C131.7 85.07 142.56 80.81 144.81 94.34C147.06 107.87 132.65 105.65 132.56 105.27C132.47 104.89 131.39 85.29 131.39 85.29Z" fill="#FFBE9D"/>
<path d="M135.92 99.8399C135.92 99.7799 136.18 99.9599 136.61 100.08C137.212 100.223 137.845 100.13 138.38 99.8199C139.72 99.0599 140.54 96.5899 140.21 94.1499C140.049 92.9834 139.632 91.8669 138.99 90.8799C138.791 90.4789 138.498 90.1321 138.136 89.8691C137.773 89.6061 137.353 89.4348 136.91 89.3699C136.627 89.3431 136.344 89.4166 136.11 89.5774C135.876 89.7383 135.706 89.9764 135.63 90.2499C135.51 90.6499 135.63 90.9099 135.63 90.9399C135.63 90.9699 135.3 90.7699 135.31 90.1899C135.336 89.841 135.476 89.5103 135.71 89.2499C136.035 88.91 136.48 88.7093 136.95 88.6899C137.523 88.7091 138.083 88.8744 138.574 89.1701C139.066 89.4659 139.474 89.8823 139.76 90.3799C140.5 91.4661 140.966 92.7148 141.12 94.0199C141.49 96.7499 140.52 99.5399 138.66 100.42C138.314 100.589 137.935 100.676 137.55 100.676C137.165 100.676 136.786 100.589 136.44 100.42C136 100.16 135.88 99.8699 135.92 99.8399Z" fill="#EB996E"/>
<path d="M70.65 89.63C70.65 89.63 81.26 91.54 91.73 82.06C98.59 75.84 107.35 71.28 109.86 72.31C112.37 73.34 115.09 81.45 123.68 81.63C123.68 81.63 127.53 97.48 133.63 95.17C139.73 92.86 129.01 69.64 129.01 69.64L111.8 63.33L94.21 64.86L76.35 72.07L67.65 81.35L70.65 89.63Z" fill="#263238"/>
<path d="M126.45 56.22C125.306 56.6477 124.212 57.2011 123.19 57.87C122.266 58.6725 121.437 59.5785 120.72 60.57C121.084 59.3271 121.837 58.2338 122.868 57.4508C123.9 56.6677 125.155 56.2363 126.45 56.22Z" fill="#263238"/>
<path d="M118.28 51.83C118.601 52.2205 118.846 52.6684 119 53.15C119.478 54.2703 119.814 55.4461 120 56.65C120.186 57.8594 120.152 59.0925 119.9 60.29C119.843 60.7982 119.665 61.2853 119.38 61.71C119.614 60.0534 119.648 58.3746 119.48 56.71C119.06 53.99 118.12 51.89 118.28 51.83Z" fill="#263238"/>
<path d="M159.38 294.6L228.63 281.72L238.98 328.52L167.06 340.66L159.38 294.6Z" fill="#E0E0E0"/>
<path d="M228.63 281.72C228.63 281.72 228.63 281.79 228.51 281.91L228.12 282.46L226.58 284.52L220.82 292.05C215.88 298.43 209.1 307.2 201.55 316.94L201.42 317.11L201.23 317.01L199.88 316.3L171.19 301.05L162.53 296.37L160.18 295.08L159.58 294.73C159.507 294.692 159.44 294.645 159.38 294.59L159.6 294.68L160.23 294.98L162.62 296.22C164.73 297.31 167.7 298.86 171.37 300.75L200.12 315.84L201.46 316.55L201.13 316.62L220.52 291.83L226.41 284.39C227.1 283.55 227.64 282.88 228.03 282.39C228.21 282.19 228.35 282.02 228.46 281.88L228.63 281.72Z" fill="#263238"/>
<path d="M167.06 340.66C166.94 340.58 171.39 333.52 177.01 324.89C182.63 316.26 187.27 309.32 187.39 309.4C187.51 309.48 183.06 316.54 177.39 325.17C171.72 333.8 167.18 340.74 167.06 340.66Z" fill="#263238"/>
<path d="M238.98 328.52C238.89 328.63 232.41 323.67 224.51 317.44C216.61 311.21 210.28 306.07 210.37 305.96C210.46 305.85 216.93 310.8 224.84 317.03C232.75 323.26 239.12 328.4 238.98 328.52Z" fill="#263238"/>
<path d="M161.2 305.04C161.2 305.04 161.69 314.11 166.06 314.04C170.43 313.97 185.85 305.55 187.64 308.47C189.43 311.39 184.7 315.47 184.7 315.47C184.7 315.47 190.13 315.39 188.11 318.64C186.09 321.89 180.04 337.11 174.45 338.54C166.45 340.59 147.92 341.39 147.92 341.39L153.63 309.52L161.2 305.04Z" fill="#FFBE9D"/>
<path d="M186.38 313.5C186.213 313.739 186.018 313.957 185.8 314.15C185.4 314.54 184.8 315.09 184.04 315.73C180.039 319.083 175.534 321.783 170.69 323.73C169.76 324.1 169 324.37 168.47 324.54C168.198 324.651 167.912 324.722 167.62 324.75C168.568 324.238 169.547 323.783 170.55 323.39C175.267 321.25 179.717 318.565 183.81 315.39C184.627 314.707 185.485 314.076 186.38 313.5Z" fill="#EB996E"/>
<path d="M186.12 322.48C185.7 323.311 185.164 324.078 184.53 324.76C181.601 328.218 177.804 330.834 173.53 332.34C172.666 332.692 171.757 332.924 170.83 333.03C171.667 332.647 172.525 332.313 173.4 332.03C177.512 330.366 181.204 327.812 184.21 324.55C184.81 323.827 185.448 323.136 186.12 322.48Z" fill="#EB996E"/>
<path d="M118.575 402.05C118.575 401.83 119.877 401.72 122.48 401.72C125.12 401.72 126.44 401.812 126.44 401.995L127.54 428.45C127.54 428.743 125.853 428.89 122.48 428.89C119.143 428.89 117.475 428.762 117.475 428.505L118.575 402.05ZM127.65 398.75C127.65 399.007 125.945 399.135 122.535 399.135C119.162 399.135 117.475 399.025 117.475 398.805V390.885C117.475 390.518 119.162 390.335 122.535 390.335C125.945 390.335 127.65 390.445 127.65 390.665V398.75ZM151.416 394.79C152.113 394.79 152.461 396.073 152.461 398.64C152.461 399.41 152.369 400.327 152.186 401.39C152.039 402.417 151.746 402.93 151.306 402.93H144.321V408.43H154.441C155.064 408.43 155.486 409.237 155.706 410.85C155.816 411.547 155.871 412.298 155.871 413.105C155.871 413.875 155.761 414.883 155.541 416.13C155.321 417.377 154.954 418 154.441 418H135.631C134.238 418 133.541 417.432 133.541 416.295V380.93C133.541 379.977 133.963 379.5 134.806 379.5H154.496C155.266 379.5 155.651 381.132 155.651 384.395C155.651 387.622 155.266 389.235 154.496 389.235H144.321V394.79H151.416ZM190.805 416.79C190.805 417.56 189.082 417.945 185.635 417.945C182.188 417.945 180.318 417.67 180.025 417.12L170.84 399.96V417.065C170.84 417.725 169.135 418.055 165.725 418.055C162.352 418.055 160.665 417.725 160.665 417.065V380.27C160.665 379.72 162.113 379.445 165.01 379.445C166.147 379.445 167.467 379.555 168.97 379.775C170.51 379.958 171.445 380.325 171.775 380.875L180.575 397.815V380.545C180.575 379.848 182.28 379.5 185.69 379.5C189.1 379.5 190.805 379.848 190.805 380.545V416.79ZM194.184 380.215C194.184 380.032 194.972 379.867 196.549 379.72C198.162 379.537 199.482 379.445 200.509 379.445C204.579 379.445 206.706 379.977 206.889 381.04L211.619 405.24L216.074 381.04C216.294 379.977 218.567 379.445 222.894 379.445C223.957 379.445 225.296 379.518 226.909 379.665C228.522 379.812 229.329 379.977 229.329 380.16L219.594 416.57C219.447 417.157 218.366 417.542 216.349 417.725C213.232 418.055 210.391 418.128 207.824 417.945C205.294 417.725 203.956 417.358 203.809 416.845L194.184 380.215ZM236.321 408.54V388.96H232.416C231.793 388.96 231.353 388.172 231.096 386.595C230.986 385.825 230.931 385.037 230.931 384.23C230.931 383.423 230.986 382.635 231.096 381.865C231.353 380.288 231.793 379.5 232.416 379.5H250.896C251.52 379.5 251.941 380.288 252.161 381.865C252.308 382.635 252.381 383.423 252.381 384.23C252.381 385.037 252.308 385.825 252.161 386.595C251.941 388.172 251.52 388.96 250.896 388.96H247.211V408.54H251.061C251.685 408.54 252.125 409.328 252.381 410.905C252.528 411.675 252.601 412.463 252.601 413.27C252.601 414.077 252.528 414.865 252.381 415.635C252.125 417.212 251.685 418 251.061 418H232.526C231.903 418 231.481 417.212 231.261 415.635C231.115 414.865 231.041 414.077 231.041 413.27C231.041 412.463 231.115 411.675 231.261 410.905C231.481 409.328 231.903 408.54 232.526 408.54H236.321ZM282.121 418.11C278.931 418.11 277.207 417.597 276.951 416.57L275.136 409.475H266.391L264.796 416.295C264.576 417.432 262.816 418 259.516 418C257.756 418 256.454 417.908 255.611 417.725C254.767 417.505 254.346 417.34 254.346 417.23L264.081 379.995C264.081 379.702 266.592 379.555 271.616 379.555C276.639 379.555 279.151 379.702 279.151 379.995L288.666 417.285C288.666 417.542 287.822 417.743 286.136 417.89C284.449 418.037 283.111 418.11 282.121 418.11ZM267.766 402.49H273.541L271.066 391.105H270.736L267.766 402.49ZM292.311 415.47V382.47C292.311 381.553 292.531 380.838 292.971 380.325C293.447 379.775 294.052 379.5 294.786 379.5H303.971C309.801 379.5 314.219 380.967 317.226 383.9C320.269 386.833 321.791 391.453 321.791 397.76C321.791 411.253 316.034 418 304.521 418H295.116C293.246 418 292.311 417.157 292.311 415.47ZM302.871 389.95V406.395C302.871 407.165 302.926 407.66 303.036 407.88C303.146 408.063 303.476 408.155 304.026 408.155C306.042 408.155 307.564 407.403 308.591 405.9C309.654 404.397 310.186 401.903 310.186 398.42C310.186 394.9 309.636 392.608 308.536 391.545C307.472 390.482 305.767 389.95 303.421 389.95H302.871ZM342.537 418.55C337.404 418.55 333.205 416.863 329.942 413.49C326.715 410.117 325.102 405.203 325.102 398.75C325.102 392.26 326.734 387.347 329.997 384.01C333.297 380.673 337.532 379.005 342.702 379.005C347.909 379.005 352.107 380.655 355.297 383.955C358.487 387.218 360.082 392.187 360.082 398.86C360.082 405.497 358.45 410.447 355.187 413.71C351.924 416.937 347.707 418.55 342.537 418.55ZM342.592 389.565C340.832 389.565 339.347 390.372 338.137 391.985C336.964 393.598 336.377 395.872 336.377 398.805C336.377 401.702 336.945 403.938 338.082 405.515C339.219 407.055 340.704 407.825 342.537 407.825C344.407 407.825 345.91 407.037 347.047 405.46C348.22 403.883 348.807 401.628 348.807 398.695C348.807 395.762 348.202 393.507 346.992 391.93C345.819 390.353 344.352 389.565 342.592 389.565ZM373.298 406.45C373.298 406.67 371.978 406.78 369.338 406.78C366.735 406.78 365.433 406.688 365.433 406.505L364.333 379.39C364.333 379.097 366.001 378.95 369.338 378.95C372.711 378.95 374.398 379.078 374.398 379.335L373.298 406.45ZM364.223 409.75C364.223 409.493 365.91 409.365 369.283 409.365C372.693 409.365 374.398 409.475 374.398 409.695V417.615C374.398 417.982 372.693 418.165 369.283 418.165C365.91 418.165 364.223 418.055 364.223 417.835V409.75Z" fill="#D50000"/>
</svg>
