<svg width="390" height="50" viewBox="0 0 390 50" fill="none" xmlns="http://www.w3.org/2000/svg">
<line x1="33" y1="27" x2="201" y2="27" stroke="#D50000" stroke-width="4"/>
<line x1="212" y1="27" x2="383" y2="27" stroke="#D50000" stroke-width="4"/>
<circle cx="25" cy="25" r="23" fill="#D50000" stroke="#D50000" stroke-width="4"/>
<circle cx="195" cy="25" r="23" fill="#D50000" stroke="#D50000" stroke-width="4"/>
<path d="M388 25C388 37.7026 377.703 48 365 48C352.297 48 342 37.7026 342 25C342 12.2975 352.297 2 365 2C377.703 2 388 12.2975 388 25Z" fill="#D50000" stroke="#D50000" stroke-width="4"/>
<path d="M364.512 23.688C366.027 23.688 367.296 23.8373 368.32 24.136C369.365 24.4347 370.197 24.8507 370.816 25.384C371.456 25.896 371.915 26.504 372.192 27.208C372.469 27.8907 372.608 28.6267 372.608 29.416C372.608 30.696 372.267 31.8267 371.584 32.808C370.923 33.768 369.995 34.5147 368.8 35.048C367.627 35.6027 366.272 35.88 364.736 35.88C363.371 35.88 362.165 35.656 361.12 35.208C360.075 34.76 359.189 34.152 358.464 33.384C357.739 32.616 357.163 31.7413 356.736 30.76L358.4 29.608C358.613 30.1413 358.891 30.6747 359.232 31.208C359.573 31.72 360 32.2 360.512 32.648C361.024 33.0747 361.621 33.416 362.304 33.672C363.008 33.928 363.819 34.056 364.736 34.056C365.717 34.056 366.571 33.8747 367.296 33.512C368.021 33.1493 368.587 32.6267 368.992 31.944C369.397 31.24 369.6 30.3973 369.6 29.416C369.6 28.4773 369.408 27.6667 369.024 26.984C368.661 26.28 368.075 25.7467 367.264 25.384C366.453 25 365.376 24.808 364.032 24.808H361.728V23.048H363.648C364.736 23.048 365.664 22.8987 366.432 22.6C367.2 22.28 367.787 21.8107 368.192 21.192C368.619 20.552 368.832 19.7733 368.832 18.856C368.832 17.96 368.651 17.2347 368.288 16.68C367.925 16.104 367.435 15.688 366.816 15.432C366.197 15.1547 365.493 15.016 364.704 15.016C363.467 15.016 362.432 15.2827 361.6 15.816C360.789 16.328 360.139 16.968 359.648 17.736C359.669 17.4373 359.712 17.1707 359.776 16.936C359.861 16.68 359.957 16.4667 360.064 16.296C360.171 16.1253 360.299 15.9867 360.448 15.88C360.619 15.7733 360.8 15.7093 360.992 15.688V19.112H358.176V16.232C358.496 15.7413 358.965 15.272 359.584 14.824C360.224 14.376 360.981 14.0027 361.856 13.704C362.752 13.384 363.733 13.224 364.8 13.224C366.144 13.224 367.339 13.448 368.384 13.896C369.429 14.3227 370.251 14.9307 370.848 15.72C371.445 16.488 371.744 17.4053 371.744 18.472C371.744 19.56 371.403 20.52 370.72 21.352C370.037 22.184 369.109 22.8347 367.936 23.304C366.763 23.7733 365.429 24.008 363.936 24.008L365.12 23.432V24.264L364.512 23.688Z" fill="white"/>
</svg>
