<svg width="385" height="50" viewBox="0 0 385 50" fill="none" xmlns="http://www.w3.org/2000/svg">
<line x1="33" y1="28" x2="201" y2="28" stroke="#D50000" stroke-width="4"/>
<line x1="212" y1="28" x2="383" y2="28" stroke="#D50000" stroke-width="4"/>
<circle cx="25" cy="25" r="23" fill="#D50000" stroke="#D50000" stroke-width="4"/>
<circle cx="195" cy="25" r="23" fill="#D50000" stroke="#D50000" stroke-width="4"/>
<path d="M383 24.5C383 35.8218 373.822 45 362.5 45C351.178 45 342 35.8218 342 24.5C342 13.1782 351.178 4 362.5 4C373.822 4 383 13.1782 383 24.5Z" fill="white" stroke="#D50000" stroke-width="4"/>
<path d="M196.368 32.696C197.243 32.696 197.957 32.664 198.512 32.6C199.067 32.536 199.472 32.408 199.728 32.216C199.984 32.0027 200.133 31.704 200.176 31.32L200.464 28.856H202.256V35H187.44V32.216C188.571 31.512 189.669 30.8187 190.736 30.136C191.803 29.432 192.795 28.7173 193.712 27.992C194.651 27.2667 195.472 26.52 196.176 25.752C196.901 24.9627 197.456 24.152 197.84 23.32C198.245 22.488 198.448 21.624 198.448 20.728C198.448 19.832 198.299 19.1173 198 18.584C197.701 18.0507 197.264 17.656 196.688 17.4C196.133 17.144 195.461 17.016 194.672 17.016C193.861 17.016 193.115 17.144 192.432 17.4C191.771 17.656 191.184 18.008 190.672 18.456C190.16 18.8827 189.744 19.352 189.424 19.864C189.445 19.5653 189.488 19.2987 189.552 19.064C189.637 18.8293 189.733 18.6267 189.84 18.456C189.947 18.264 190.075 18.1147 190.224 18.008C190.395 17.88 190.576 17.8053 190.768 17.784V21.208H187.952V18.328C188.293 17.8373 188.784 17.3573 189.424 16.888C190.085 16.4187 190.864 16.024 191.76 15.704C192.656 15.384 193.627 15.224 194.672 15.224C196.101 15.224 197.317 15.4373 198.32 15.864C199.323 16.2907 200.091 16.92 200.624 17.752C201.179 18.584 201.456 19.608 201.456 20.824C201.456 21.8053 201.2 22.7653 200.688 23.704C200.176 24.6427 199.483 25.56 198.608 26.456C197.733 27.352 196.741 28.2267 195.632 29.08C194.523 29.912 193.349 30.712 192.112 31.48C190.896 32.2267 189.691 32.9307 188.496 33.592C188.453 33.5493 188.421 33.4747 188.4 33.368C188.4 33.24 188.4 33.112 188.4 32.984C188.421 32.856 188.443 32.76 188.464 32.696H196.368Z" fill="white"/>
<path d="M361.512 23.688C363.027 23.688 364.296 23.8373 365.32 24.136C366.365 24.4347 367.197 24.8507 367.816 25.384C368.456 25.896 368.915 26.504 369.192 27.208C369.469 27.8907 369.608 28.6267 369.608 29.416C369.608 30.696 369.267 31.8267 368.584 32.808C367.923 33.768 366.995 34.5147 365.8 35.048C364.627 35.6027 363.272 35.88 361.736 35.88C360.371 35.88 359.165 35.656 358.12 35.208C357.075 34.76 356.189 34.152 355.464 33.384C354.739 32.616 354.163 31.7413 353.736 30.76L355.4 29.608C355.613 30.1413 355.891 30.6747 356.232 31.208C356.573 31.72 357 32.2 357.512 32.648C358.024 33.0747 358.621 33.416 359.304 33.672C360.008 33.928 360.819 34.056 361.736 34.056C362.717 34.056 363.571 33.8747 364.296 33.512C365.021 33.1493 365.587 32.6267 365.992 31.944C366.397 31.24 366.6 30.3973 366.6 29.416C366.6 28.4773 366.408 27.6667 366.024 26.984C365.661 26.28 365.075 25.7467 364.264 25.384C363.453 25 362.376 24.808 361.032 24.808H358.728V23.048H360.648C361.736 23.048 362.664 22.8987 363.432 22.6C364.2 22.28 364.787 21.8107 365.192 21.192C365.619 20.552 365.832 19.7733 365.832 18.856C365.832 17.96 365.651 17.2347 365.288 16.68C364.925 16.104 364.435 15.688 363.816 15.432C363.197 15.1547 362.493 15.016 361.704 15.016C360.467 15.016 359.432 15.2827 358.6 15.816C357.789 16.328 357.139 16.968 356.648 17.736C356.669 17.4373 356.712 17.1707 356.776 16.936C356.861 16.68 356.957 16.4667 357.064 16.296C357.171 16.1253 357.299 15.9867 357.448 15.88C357.619 15.7733 357.8 15.7093 357.992 15.688V19.112H355.176V16.232C355.496 15.7413 355.965 15.272 356.584 14.824C357.224 14.376 357.981 14.0027 358.856 13.704C359.752 13.384 360.733 13.224 361.8 13.224C363.144 13.224 364.339 13.448 365.384 13.896C366.429 14.3227 367.251 14.9307 367.848 15.72C368.445 16.488 368.744 17.4053 368.744 18.472C368.744 19.56 368.403 20.52 367.72 21.352C367.037 22.184 366.109 22.8347 364.936 23.304C363.763 23.7733 362.429 24.008 360.936 24.008L362.12 23.432V24.264L361.512 23.688Z" fill="black"/>
<path d="M20.1694 31.9351L12.5833 24.472L10 26.9955L20.1694 37L42 15.5235L39.4349 13L20.1694 31.9351Z" fill="white"/>
</svg>
