<svg width="384" height="50" viewBox="0 0 384 50" fill="none" xmlns="http://www.w3.org/2000/svg">
<line x1="33" y1="27" x2="201" y2="27" stroke="#D50000" stroke-width="4"/>
<line x1="212" y1="27" x2="383" y2="27" stroke="#D50000" stroke-width="4"/>
<circle cx="25" cy="25" r="23" fill="#D50000" stroke="#D50000" stroke-width="4"/>
<path d="M215 24.875C215 35.7989 205.875 44.75 194.5 44.75C183.125 44.75 174 35.7989 174 24.875C174 13.9511 183.125 5 194.5 5C205.875 5 215 13.9511 215 24.875Z" fill="white" stroke="#D50000" stroke-width="4"/>
<path d="M382 25.5C382 36.8218 372.822 46 361.5 46C350.178 46 341 36.8218 341 25.5C341 14.1782 350.178 5 361.5 5C372.822 5 382 14.1782 382 25.5Z" fill="white" stroke="#D50000" stroke-width="4"/>
<path d="M196.368 31.696C197.243 31.696 197.957 31.664 198.512 31.6C199.067 31.536 199.472 31.408 199.728 31.216C199.984 31.0027 200.133 30.704 200.176 30.32L200.464 27.856H202.256V34H187.44V31.216C188.571 30.512 189.669 29.8187 190.736 29.136C191.803 28.432 192.795 27.7173 193.712 26.992C194.651 26.2667 195.472 25.52 196.176 24.752C196.901 23.9627 197.456 23.152 197.84 22.32C198.245 21.488 198.448 20.624 198.448 19.728C198.448 18.832 198.299 18.1173 198 17.584C197.701 17.0507 197.264 16.656 196.688 16.4C196.133 16.144 195.461 16.016 194.672 16.016C193.861 16.016 193.115 16.144 192.432 16.4C191.771 16.656 191.184 17.008 190.672 17.456C190.16 17.8827 189.744 18.352 189.424 18.864C189.445 18.5653 189.488 18.2987 189.552 18.064C189.637 17.8293 189.733 17.6267 189.84 17.456C189.947 17.264 190.075 17.1147 190.224 17.008C190.395 16.88 190.576 16.8053 190.768 16.784V20.208H187.952V17.328C188.293 16.8373 188.784 16.3573 189.424 15.888C190.085 15.4187 190.864 15.024 191.76 14.704C192.656 14.384 193.627 14.224 194.672 14.224C196.101 14.224 197.317 14.4373 198.32 14.864C199.323 15.2907 200.091 15.92 200.624 16.752C201.179 17.584 201.456 18.608 201.456 19.824C201.456 20.8053 201.2 21.7653 200.688 22.704C200.176 23.6427 199.483 24.56 198.608 25.456C197.733 26.352 196.741 27.2267 195.632 28.08C194.523 28.912 193.349 29.712 192.112 30.48C190.896 31.2267 189.691 31.9307 188.496 32.592C188.453 32.5493 188.421 32.4747 188.4 32.368C188.4 32.24 188.4 32.112 188.4 31.984C188.421 31.856 188.443 31.76 188.464 31.696H196.368Z" fill="black"/>
<path d="M28.2 31.376C28.2 31.6747 28.3493 31.92 28.648 32.112C28.9467 32.2827 29.3733 32.4 29.928 32.464C30.4827 32.528 31.144 32.56 31.912 32.56H33.224V34H20.2V32.56H21.832C22.5573 32.56 23.1653 32.528 23.656 32.464C24.168 32.4 24.552 32.2827 24.808 32.112C25.0853 31.92 25.224 31.6747 25.224 31.376V16.752L25.768 16.4C25.6187 16.7627 25.352 17.104 24.968 17.424C24.584 17.7227 24.1147 17.9893 23.56 18.224C23.0053 18.4587 22.3867 18.6293 21.704 18.736C21.0427 18.8427 20.36 18.8853 19.656 18.864V16.976C20.424 16.9547 21.1387 16.9013 21.8 16.816C22.4827 16.7093 23.0907 16.56 23.624 16.368C24.1787 16.1547 24.6693 15.8987 25.096 15.6C25.544 15.28 25.9067 14.9173 26.184 14.512H28.2V31.376Z" fill="white"/>
<path d="M360.512 24.688C362.027 24.688 363.296 24.8373 364.32 25.136C365.365 25.4347 366.197 25.8507 366.816 26.384C367.456 26.896 367.915 27.504 368.192 28.208C368.469 28.8907 368.608 29.6267 368.608 30.416C368.608 31.696 368.267 32.8267 367.584 33.808C366.923 34.768 365.995 35.5147 364.8 36.048C363.627 36.6027 362.272 36.88 360.736 36.88C359.371 36.88 358.165 36.656 357.12 36.208C356.075 35.76 355.189 35.152 354.464 34.384C353.739 33.616 353.163 32.7413 352.736 31.76L354.4 30.608C354.613 31.1413 354.891 31.6747 355.232 32.208C355.573 32.72 356 33.2 356.512 33.648C357.024 34.0747 357.621 34.416 358.304 34.672C359.008 34.928 359.819 35.056 360.736 35.056C361.717 35.056 362.571 34.8747 363.296 34.512C364.021 34.1493 364.587 33.6267 364.992 32.944C365.397 32.24 365.6 31.3973 365.6 30.416C365.6 29.4773 365.408 28.6667 365.024 27.984C364.661 27.28 364.075 26.7467 363.264 26.384C362.453 26 361.376 25.808 360.032 25.808H357.728V24.048H359.648C360.736 24.048 361.664 23.8987 362.432 23.6C363.2 23.28 363.787 22.8107 364.192 22.192C364.619 21.552 364.832 20.7733 364.832 19.856C364.832 18.96 364.651 18.2347 364.288 17.68C363.925 17.104 363.435 16.688 362.816 16.432C362.197 16.1547 361.493 16.016 360.704 16.016C359.467 16.016 358.432 16.2827 357.6 16.816C356.789 17.328 356.139 17.968 355.648 18.736C355.669 18.4373 355.712 18.1707 355.776 17.936C355.861 17.68 355.957 17.4667 356.064 17.296C356.171 17.1253 356.299 16.9867 356.448 16.88C356.619 16.7733 356.8 16.7093 356.992 16.688V20.112H354.176V17.232C354.496 16.7413 354.965 16.272 355.584 15.824C356.224 15.376 356.981 15.0027 357.856 14.704C358.752 14.384 359.733 14.224 360.8 14.224C362.144 14.224 363.339 14.448 364.384 14.896C365.429 15.3227 366.251 15.9307 366.848 16.72C367.445 17.488 367.744 18.4053 367.744 19.472C367.744 20.56 367.403 21.52 366.72 22.352C366.037 23.184 365.109 23.8347 363.936 24.304C362.763 24.7733 361.429 25.008 359.936 25.008L361.12 24.432V25.264L360.512 24.688Z" fill="black"/>
</svg>
